%TF.GenerationSoftware,KiCad,Pcbnew,(5.1.6)-1*%
%TF.CreationDate,2021-04-13T16:40:33+02:00*%
%TF.ProjectId,11_Joystick,31315f4a-6f79-4737-9469-636b2e6b6963,rev?*%
%TF.SameCoordinates,Original*%
%TF.FileFunction,Soldermask,Top*%
%TF.FilePolarity,Negative*%
%FSLAX46Y46*%
G04 Gerber Fmt 4.6, Leading zero omitted, Abs format (unit mm)*
G04 Created by KiCad (PCBNEW (5.1.6)-1) date 2021-04-13 16:40:33*
%MOMM*%
%LPD*%
G01*
G04 APERTURE LIST*
%TA.AperFunction,Profile*%
%ADD10C,0.150000*%
%TD*%
%ADD11C,1.750000*%
%ADD12C,2.300000*%
%ADD13C,2.100000*%
%ADD14C,0.900000*%
%ADD15C,6.500000*%
%ADD16O,1.800000X2.050000*%
G04 APERTURE END LIST*
D10*
X140000000Y-130000000D02*
X195000000Y-130000000D01*
X195000000Y-130000000D02*
G75*
G02*
X200000000Y-135000000I0J-5000000D01*
G01*
X200000000Y-150000000D02*
G75*
G02*
X195000000Y-155000000I-5000000J0D01*
G01*
X140000000Y-155000000D02*
G75*
G02*
X135000000Y-150000000I0J5000000D01*
G01*
X135000000Y-135000000D02*
G75*
G02*
X140000000Y-130000000I5000000J0D01*
G01*
X135000000Y-150000000D02*
X135000000Y-135000000D01*
X195000000Y-155000000D02*
X140000000Y-155000000D01*
X200000000Y-135000000D02*
X200000000Y-150000000D01*
D11*
%TO.C,U2*%
X177000000Y-148800000D03*
X177000000Y-140200000D03*
D12*
X172000000Y-138175000D03*
X172000000Y-150825000D03*
X182000000Y-150825000D03*
X182000000Y-138175000D03*
D13*
X179500000Y-135770000D03*
X177000000Y-135770000D03*
X174500000Y-135770000D03*
X168270000Y-147000000D03*
X168270000Y-142000000D03*
X168270000Y-144500000D03*
%TD*%
D14*
%TO.C,H3*%
X196697056Y-148302944D03*
X195000000Y-147600000D03*
X193302944Y-148302944D03*
X192600000Y-150000000D03*
X193302944Y-151697056D03*
X195000000Y-152400000D03*
X196697056Y-151697056D03*
X197400000Y-150000000D03*
D15*
X195000000Y-150000000D03*
%TD*%
D14*
%TO.C,H1*%
X141697056Y-133302944D03*
X140000000Y-132600000D03*
X138302944Y-133302944D03*
X137600000Y-135000000D03*
X138302944Y-136697056D03*
X140000000Y-137400000D03*
X141697056Y-136697056D03*
X142400000Y-135000000D03*
D15*
X140000000Y-135000000D03*
%TD*%
D14*
%TO.C,H2*%
X196697056Y-133302944D03*
X195000000Y-132600000D03*
X193302944Y-133302944D03*
X192600000Y-135000000D03*
X193302944Y-136697056D03*
X195000000Y-137400000D03*
X196697056Y-136697056D03*
X197400000Y-135000000D03*
D15*
X195000000Y-135000000D03*
%TD*%
D14*
%TO.C,H4*%
X141697056Y-148302944D03*
X140000000Y-147600000D03*
X138302944Y-148302944D03*
X137600000Y-150000000D03*
X138302944Y-151697056D03*
X140000000Y-152400000D03*
X141697056Y-151697056D03*
X142400000Y-150000000D03*
D15*
X140000000Y-150000000D03*
%TD*%
%TO.C,C1*%
G36*
G01*
X161262500Y-137950000D02*
X160737500Y-137950000D01*
G75*
G02*
X160475000Y-137687500I0J262500D01*
G01*
X160475000Y-137062500D01*
G75*
G02*
X160737500Y-136800000I262500J0D01*
G01*
X161262500Y-136800000D01*
G75*
G02*
X161525000Y-137062500I0J-262500D01*
G01*
X161525000Y-137687500D01*
G75*
G02*
X161262500Y-137950000I-262500J0D01*
G01*
G37*
G36*
G01*
X161262500Y-136200000D02*
X160737500Y-136200000D01*
G75*
G02*
X160475000Y-135937500I0J262500D01*
G01*
X160475000Y-135312500D01*
G75*
G02*
X160737500Y-135050000I262500J0D01*
G01*
X161262500Y-135050000D01*
G75*
G02*
X161525000Y-135312500I0J-262500D01*
G01*
X161525000Y-135937500D01*
G75*
G02*
X161262500Y-136200000I-262500J0D01*
G01*
G37*
%TD*%
%TO.C,J1*%
G36*
G01*
X155150000Y-145489706D02*
X155150000Y-147010294D01*
G75*
G02*
X154885294Y-147275000I-264706J0D01*
G01*
X153614706Y-147275000D01*
G75*
G02*
X153350000Y-147010294I0J264706D01*
G01*
X153350000Y-145489706D01*
G75*
G02*
X153614706Y-145225000I264706J0D01*
G01*
X154885294Y-145225000D01*
G75*
G02*
X155150000Y-145489706I0J-264706D01*
G01*
G37*
D16*
X151750000Y-146250000D03*
X149250000Y-146250000D03*
X146750000Y-146250000D03*
%TD*%
%TO.C,R1*%
G36*
G01*
X162237500Y-135050000D02*
X162762500Y-135050000D01*
G75*
G02*
X163025000Y-135312500I0J-262500D01*
G01*
X163025000Y-135937500D01*
G75*
G02*
X162762500Y-136200000I-262500J0D01*
G01*
X162237500Y-136200000D01*
G75*
G02*
X161975000Y-135937500I0J262500D01*
G01*
X161975000Y-135312500D01*
G75*
G02*
X162237500Y-135050000I262500J0D01*
G01*
G37*
G36*
G01*
X162237500Y-136800000D02*
X162762500Y-136800000D01*
G75*
G02*
X163025000Y-137062500I0J-262500D01*
G01*
X163025000Y-137687500D01*
G75*
G02*
X162762500Y-137950000I-262500J0D01*
G01*
X162237500Y-137950000D01*
G75*
G02*
X161975000Y-137687500I0J262500D01*
G01*
X161975000Y-137062500D01*
G75*
G02*
X162237500Y-136800000I262500J0D01*
G01*
G37*
%TD*%
%TO.C,R2*%
G36*
G01*
X165675000Y-133762500D02*
X165675000Y-133237500D01*
G75*
G02*
X165937500Y-132975000I262500J0D01*
G01*
X166562500Y-132975000D01*
G75*
G02*
X166825000Y-133237500I0J-262500D01*
G01*
X166825000Y-133762500D01*
G75*
G02*
X166562500Y-134025000I-262500J0D01*
G01*
X165937500Y-134025000D01*
G75*
G02*
X165675000Y-133762500I0J262500D01*
G01*
G37*
G36*
G01*
X167425000Y-133762500D02*
X167425000Y-133237500D01*
G75*
G02*
X167687500Y-132975000I262500J0D01*
G01*
X168312500Y-132975000D01*
G75*
G02*
X168575000Y-133237500I0J-262500D01*
G01*
X168575000Y-133762500D01*
G75*
G02*
X168312500Y-134025000I-262500J0D01*
G01*
X167687500Y-134025000D01*
G75*
G02*
X167425000Y-133762500I0J262500D01*
G01*
G37*
%TD*%
%TO.C,R3*%
G36*
G01*
X164262500Y-148075000D02*
X163737500Y-148075000D01*
G75*
G02*
X163475000Y-147812500I0J262500D01*
G01*
X163475000Y-147187500D01*
G75*
G02*
X163737500Y-146925000I262500J0D01*
G01*
X164262500Y-146925000D01*
G75*
G02*
X164525000Y-147187500I0J-262500D01*
G01*
X164525000Y-147812500D01*
G75*
G02*
X164262500Y-148075000I-262500J0D01*
G01*
G37*
G36*
G01*
X164262500Y-149825000D02*
X163737500Y-149825000D01*
G75*
G02*
X163475000Y-149562500I0J262500D01*
G01*
X163475000Y-148937500D01*
G75*
G02*
X163737500Y-148675000I262500J0D01*
G01*
X164262500Y-148675000D01*
G75*
G02*
X164525000Y-148937500I0J-262500D01*
G01*
X164525000Y-149562500D01*
G75*
G02*
X164262500Y-149825000I-262500J0D01*
G01*
G37*
%TD*%
%TO.C,U1*%
G36*
G01*
X163730000Y-139000000D02*
X164080000Y-139000000D01*
G75*
G02*
X164255000Y-139175000I0J-175000D01*
G01*
X164255000Y-140875000D01*
G75*
G02*
X164080000Y-141050000I-175000J0D01*
G01*
X163730000Y-141050000D01*
G75*
G02*
X163555000Y-140875000I0J175000D01*
G01*
X163555000Y-139175000D01*
G75*
G02*
X163730000Y-139000000I175000J0D01*
G01*
G37*
G36*
G01*
X162460000Y-139000000D02*
X162810000Y-139000000D01*
G75*
G02*
X162985000Y-139175000I0J-175000D01*
G01*
X162985000Y-140875000D01*
G75*
G02*
X162810000Y-141050000I-175000J0D01*
G01*
X162460000Y-141050000D01*
G75*
G02*
X162285000Y-140875000I0J175000D01*
G01*
X162285000Y-139175000D01*
G75*
G02*
X162460000Y-139000000I175000J0D01*
G01*
G37*
G36*
G01*
X161190000Y-139000000D02*
X161540000Y-139000000D01*
G75*
G02*
X161715000Y-139175000I0J-175000D01*
G01*
X161715000Y-140875000D01*
G75*
G02*
X161540000Y-141050000I-175000J0D01*
G01*
X161190000Y-141050000D01*
G75*
G02*
X161015000Y-140875000I0J175000D01*
G01*
X161015000Y-139175000D01*
G75*
G02*
X161190000Y-139000000I175000J0D01*
G01*
G37*
G36*
G01*
X159920000Y-139000000D02*
X160270000Y-139000000D01*
G75*
G02*
X160445000Y-139175000I0J-175000D01*
G01*
X160445000Y-140875000D01*
G75*
G02*
X160270000Y-141050000I-175000J0D01*
G01*
X159920000Y-141050000D01*
G75*
G02*
X159745000Y-140875000I0J175000D01*
G01*
X159745000Y-139175000D01*
G75*
G02*
X159920000Y-139000000I175000J0D01*
G01*
G37*
G36*
G01*
X159920000Y-143950000D02*
X160270000Y-143950000D01*
G75*
G02*
X160445000Y-144125000I0J-175000D01*
G01*
X160445000Y-145825000D01*
G75*
G02*
X160270000Y-146000000I-175000J0D01*
G01*
X159920000Y-146000000D01*
G75*
G02*
X159745000Y-145825000I0J175000D01*
G01*
X159745000Y-144125000D01*
G75*
G02*
X159920000Y-143950000I175000J0D01*
G01*
G37*
G36*
G01*
X161190000Y-143950000D02*
X161540000Y-143950000D01*
G75*
G02*
X161715000Y-144125000I0J-175000D01*
G01*
X161715000Y-145825000D01*
G75*
G02*
X161540000Y-146000000I-175000J0D01*
G01*
X161190000Y-146000000D01*
G75*
G02*
X161015000Y-145825000I0J175000D01*
G01*
X161015000Y-144125000D01*
G75*
G02*
X161190000Y-143950000I175000J0D01*
G01*
G37*
G36*
G01*
X162460000Y-143950000D02*
X162810000Y-143950000D01*
G75*
G02*
X162985000Y-144125000I0J-175000D01*
G01*
X162985000Y-145825000D01*
G75*
G02*
X162810000Y-146000000I-175000J0D01*
G01*
X162460000Y-146000000D01*
G75*
G02*
X162285000Y-145825000I0J175000D01*
G01*
X162285000Y-144125000D01*
G75*
G02*
X162460000Y-143950000I175000J0D01*
G01*
G37*
G36*
G01*
X163730000Y-143950000D02*
X164080000Y-143950000D01*
G75*
G02*
X164255000Y-144125000I0J-175000D01*
G01*
X164255000Y-145825000D01*
G75*
G02*
X164080000Y-146000000I-175000J0D01*
G01*
X163730000Y-146000000D01*
G75*
G02*
X163555000Y-145825000I0J175000D01*
G01*
X163555000Y-144125000D01*
G75*
G02*
X163730000Y-143950000I175000J0D01*
G01*
G37*
%TD*%
M02*
