M48
; DRILL file {KiCad (5.1.6)-1} date 04/13/21 16:40:37
; FORMAT={-:-/ absolute / inch / decimal}
; #@! TF.CreationDate,2021-04-13T16:40:37+02:00
; #@! TF.GenerationSoftware,Kicad,Pcbnew,(5.1.6)-1
; #@! TF.FileFunction,Plated,1,2,PTH
FMAT,2
INCH
T1C0.0197
T2C0.0236
T3C0.0374
T4C0.0472
T5C0.0630
T6C0.1260
%
G90
G05
T1
X7.5827Y-5.9055
X7.6104Y-5.8387
X7.6104Y-5.9723
X7.6772Y-5.811
X7.6772Y-6.0
X7.744Y-5.8387
X7.744Y-5.9723
X7.7717Y-5.9055
X7.5827Y-5.315
X7.6104Y-5.2481
X7.6104Y-5.3818
X7.6772Y-5.2205
X7.6772Y-5.4094
X7.744Y-5.2481
X7.744Y-5.3818
X7.7717Y-5.315
X5.4173Y-5.315
X5.445Y-5.2481
X5.445Y-5.3818
X5.5118Y-5.2205
X5.5118Y-5.4094
X5.5786Y-5.2481
X5.5786Y-5.3818
X5.6063Y-5.315
X5.4173Y-5.9055
X5.445Y-5.8387
X5.445Y-5.9723
X5.5118Y-5.811
X5.5118Y-6.0
X5.5786Y-5.8387
X5.5786Y-5.9723
X5.6063Y-5.9055
T2
X5.7087Y-5.5118
X5.9055Y-5.2717
X5.9055Y-5.9055
X6.1024Y-5.2717
X6.1024Y-5.5118
X6.2992Y-5.9055
X6.3543Y-5.7913
X6.3976Y-5.2717
X6.4567Y-5.9488
X6.6732Y-5.2559
X7.2835Y-5.315
X7.4803Y-5.315
X7.4803Y-5.5118
X7.4803Y-5.7087
T3
X5.7776Y-5.7579
X5.876Y-5.7579
X5.9744Y-5.7579
X6.0728Y-5.7579
T4
X6.6248Y-5.5906
X6.6248Y-5.689
X6.6248Y-5.7874
X6.8701Y-5.3453
X6.9685Y-5.3453
X7.0669Y-5.3453
T5
X6.7717Y-5.44
X6.7717Y-5.938
X7.1654Y-5.44
X7.1654Y-5.938
T6
X7.6772Y-5.315
X5.5118Y-5.9055
X7.6772Y-5.9055
X5.5118Y-5.315
T0
M30
