%TF.GenerationSoftware,KiCad,Pcbnew,(5.1.6)-1*%
%TF.CreationDate,2021-04-13T16:40:33+02:00*%
%TF.ProjectId,11_Joystick,31315f4a-6f79-4737-9469-636b2e6b6963,rev?*%
%TF.SameCoordinates,Original*%
%TF.FileFunction,Copper,L2,Bot*%
%TF.FilePolarity,Positive*%
%FSLAX46Y46*%
G04 Gerber Fmt 4.6, Leading zero omitted, Abs format (unit mm)*
G04 Created by KiCad (PCBNEW (5.1.6)-1) date 2021-04-13 16:40:33*
%MOMM*%
%LPD*%
G01*
G04 APERTURE LIST*
%TA.AperFunction,Profile*%
%ADD10C,0.150000*%
%TD*%
%TA.AperFunction,ComponentPad*%
%ADD11C,2.200000*%
%TD*%
%TA.AperFunction,ComponentPad*%
%ADD12C,2.000000*%
%TD*%
%TA.AperFunction,ComponentPad*%
%ADD13C,0.800000*%
%TD*%
%TA.AperFunction,ComponentPad*%
%ADD14C,6.400000*%
%TD*%
%TA.AperFunction,ComponentPad*%
%ADD15O,1.700000X1.950000*%
%TD*%
%TA.AperFunction,ViaPad*%
%ADD16C,1.000000*%
%TD*%
%TA.AperFunction,Conductor*%
%ADD17C,0.400000*%
%TD*%
%TA.AperFunction,Conductor*%
%ADD18C,0.254000*%
%TD*%
G04 APERTURE END LIST*
D10*
X140000000Y-130000000D02*
X195000000Y-130000000D01*
X195000000Y-130000000D02*
G75*
G02*
X200000000Y-135000000I0J-5000000D01*
G01*
X200000000Y-150000000D02*
G75*
G02*
X195000000Y-155000000I-5000000J0D01*
G01*
X140000000Y-155000000D02*
G75*
G02*
X135000000Y-150000000I0J5000000D01*
G01*
X135000000Y-135000000D02*
G75*
G02*
X140000000Y-130000000I5000000J0D01*
G01*
X135000000Y-150000000D02*
X135000000Y-135000000D01*
X195000000Y-155000000D02*
X140000000Y-155000000D01*
X200000000Y-135000000D02*
X200000000Y-150000000D01*
D11*
%TO.P,U2,7*%
%TO.N,GND*%
X172000000Y-138175000D03*
%TO.P,U2,8*%
X172000000Y-150825000D03*
%TO.P,U2,9*%
X182000000Y-150825000D03*
%TO.P,U2,10*%
X182000000Y-138175000D03*
D12*
%TO.P,U2,1*%
%TO.N,mes1_0*%
X179500000Y-135770000D03*
%TO.P,U2,2*%
%TO.N,mes1_1*%
X177000000Y-135770000D03*
%TO.P,U2,3*%
%TO.N,Net-(R2-Pad2)*%
X174500000Y-135770000D03*
%TO.P,U2,6*%
%TO.N,mes0_0*%
X168270000Y-147000000D03*
%TO.P,U2,4*%
%TO.N,Net-(R2-Pad2)*%
X168270000Y-142000000D03*
%TO.P,U2,5*%
%TO.N,mes0_1*%
X168270000Y-144500000D03*
%TD*%
D13*
%TO.P,H3,1*%
%TO.N,GND*%
X196697056Y-148302944D03*
X195000000Y-147600000D03*
X193302944Y-148302944D03*
X192600000Y-150000000D03*
X193302944Y-151697056D03*
X195000000Y-152400000D03*
X196697056Y-151697056D03*
X197400000Y-150000000D03*
D14*
X195000000Y-150000000D03*
%TD*%
D13*
%TO.P,H1,1*%
%TO.N,GND*%
X141697056Y-133302944D03*
X140000000Y-132600000D03*
X138302944Y-133302944D03*
X137600000Y-135000000D03*
X138302944Y-136697056D03*
X140000000Y-137400000D03*
X141697056Y-136697056D03*
X142400000Y-135000000D03*
D14*
X140000000Y-135000000D03*
%TD*%
D13*
%TO.P,H2,1*%
%TO.N,GND*%
X196697056Y-133302944D03*
X195000000Y-132600000D03*
X193302944Y-133302944D03*
X192600000Y-135000000D03*
X193302944Y-136697056D03*
X195000000Y-137400000D03*
X196697056Y-136697056D03*
X197400000Y-135000000D03*
D14*
X195000000Y-135000000D03*
%TD*%
D13*
%TO.P,H4,1*%
%TO.N,GND*%
X141697056Y-148302944D03*
X140000000Y-147600000D03*
X138302944Y-148302944D03*
X137600000Y-150000000D03*
X138302944Y-151697056D03*
X140000000Y-152400000D03*
X141697056Y-151697056D03*
X142400000Y-150000000D03*
D14*
X140000000Y-150000000D03*
%TD*%
%TO.P,J1,1*%
%TO.N,SDA*%
%TA.AperFunction,ComponentPad*%
G36*
G01*
X155100000Y-145525000D02*
X155100000Y-146975000D01*
G75*
G02*
X154850000Y-147225000I-250000J0D01*
G01*
X153650000Y-147225000D01*
G75*
G02*
X153400000Y-146975000I0J250000D01*
G01*
X153400000Y-145525000D01*
G75*
G02*
X153650000Y-145275000I250000J0D01*
G01*
X154850000Y-145275000D01*
G75*
G02*
X155100000Y-145525000I0J-250000D01*
G01*
G37*
%TD.AperFunction*%
D15*
%TO.P,J1,2*%
%TO.N,SCL*%
X151750000Y-146250000D03*
%TO.P,J1,3*%
%TO.N,3V3*%
X149250000Y-146250000D03*
%TO.P,J1,4*%
%TO.N,GND*%
X146750000Y-146250000D03*
%TD*%
D16*
%TO.N,GND*%
X162500000Y-133900000D03*
X161400000Y-147100000D03*
X164000000Y-151100000D03*
X150000000Y-133900000D03*
X155000000Y-133900000D03*
X150000000Y-150000000D03*
X160000000Y-150000000D03*
X190000000Y-145000000D03*
X190000000Y-140000000D03*
X190000000Y-135000000D03*
X185000000Y-135000000D03*
X155000000Y-140000000D03*
X145000000Y-140000000D03*
%TO.N,Net-(R2-Pad2)*%
X169500000Y-133500000D03*
%TD*%
D17*
%TO.N,GND*%
X172000000Y-138175000D02*
X182000000Y-138175000D01*
X172000000Y-150825000D02*
X182000000Y-150825000D01*
X194175000Y-150825000D02*
X195000000Y-150000000D01*
X182000000Y-150825000D02*
X194175000Y-150825000D01*
X195000000Y-150000000D02*
X195000000Y-135000000D01*
X191825000Y-138175000D02*
X195000000Y-135000000D01*
X182000000Y-138175000D02*
X191825000Y-138175000D01*
X140000000Y-135000000D02*
X140000000Y-150000000D01*
X146750000Y-146250000D02*
X146750000Y-148750000D01*
X145500000Y-150000000D02*
X140000000Y-150000000D01*
X146750000Y-148750000D02*
X145500000Y-150000000D01*
X145500000Y-150000000D02*
X148600000Y-153100000D01*
X169725000Y-153100000D02*
X172000000Y-150825000D01*
X141100000Y-133900000D02*
X140000000Y-135000000D01*
X162500000Y-133900000D02*
X141100000Y-133900000D01*
X161400000Y-153000000D02*
X161500000Y-153100000D01*
X148600000Y-153100000D02*
X161500000Y-153100000D01*
X161400000Y-147100000D02*
X161400000Y-153000000D01*
X164000000Y-153000000D02*
X164100000Y-153100000D01*
X164000000Y-151100000D02*
X164000000Y-153000000D01*
X161500000Y-153100000D02*
X164100000Y-153100000D01*
X164100000Y-153100000D02*
X169725000Y-153100000D01*
X155000000Y-140000000D02*
X155000000Y-133900000D01*
X145000000Y-140000000D02*
X140000000Y-135000000D01*
X150000000Y-151700000D02*
X148600000Y-153100000D01*
X150000000Y-150000000D02*
X150000000Y-151700000D01*
X160000000Y-148500000D02*
X161400000Y-147100000D01*
X160000000Y-150000000D02*
X160000000Y-148500000D01*
X190000000Y-145000000D02*
X195000000Y-150000000D01*
X190000000Y-140000000D02*
X195000000Y-135000000D01*
X185000000Y-135000000D02*
X190000000Y-135000000D01*
X190000000Y-135000000D02*
X195000000Y-135000000D01*
%TO.N,Net-(R2-Pad2)*%
X172230000Y-133500000D02*
X174500000Y-135770000D01*
X169500000Y-133500000D02*
X172230000Y-133500000D01*
X168270000Y-134730000D02*
X169500000Y-133500000D01*
X168270000Y-142000000D02*
X168270000Y-134730000D01*
%TD*%
D18*
%TO.N,GND*%
G36*
X195759192Y-130780578D02*
G01*
X196494389Y-130981705D01*
X197182351Y-131309846D01*
X197801331Y-131754628D01*
X198331761Y-132301988D01*
X198756884Y-132934639D01*
X199063251Y-133632561D01*
X199242499Y-134379183D01*
X199290000Y-135026030D01*
X199290001Y-149968370D01*
X199219422Y-150759193D01*
X199018295Y-151494389D01*
X198690152Y-152182355D01*
X198245374Y-152801328D01*
X197698012Y-153331761D01*
X197065362Y-153756883D01*
X196367439Y-154063251D01*
X195620819Y-154242499D01*
X194973970Y-154290000D01*
X140031618Y-154290000D01*
X139240807Y-154219422D01*
X138505611Y-154018295D01*
X137817645Y-153690152D01*
X137198672Y-153245374D01*
X136671020Y-152700881D01*
X137478724Y-152700881D01*
X137838912Y-153190548D01*
X138502882Y-153550849D01*
X139224385Y-153774694D01*
X139975695Y-153853480D01*
X140727938Y-153784178D01*
X141452208Y-153569452D01*
X142120670Y-153217555D01*
X142161088Y-153190548D01*
X142521276Y-152700881D01*
X192478724Y-152700881D01*
X192838912Y-153190548D01*
X193502882Y-153550849D01*
X194224385Y-153774694D01*
X194975695Y-153853480D01*
X195727938Y-153784178D01*
X196452208Y-153569452D01*
X197120670Y-153217555D01*
X197161088Y-153190548D01*
X197521276Y-152700881D01*
X195000000Y-150179605D01*
X192478724Y-152700881D01*
X142521276Y-152700881D01*
X140000000Y-150179605D01*
X137478724Y-152700881D01*
X136671020Y-152700881D01*
X136668239Y-152698012D01*
X136243117Y-152065362D01*
X135936749Y-151367439D01*
X135757501Y-150620819D01*
X135710127Y-149975695D01*
X136146520Y-149975695D01*
X136215822Y-150727938D01*
X136430548Y-151452208D01*
X136782445Y-152120670D01*
X136809452Y-152161088D01*
X137299119Y-152521276D01*
X139820395Y-150000000D01*
X140179605Y-150000000D01*
X142700881Y-152521276D01*
X143190548Y-152161088D01*
X143260753Y-152031712D01*
X170972893Y-152031712D01*
X171080726Y-152306338D01*
X171387384Y-152457216D01*
X171717585Y-152545369D01*
X172058639Y-152567409D01*
X172397439Y-152522489D01*
X172720966Y-152412336D01*
X172919274Y-152306338D01*
X173027107Y-152031712D01*
X180972893Y-152031712D01*
X181080726Y-152306338D01*
X181387384Y-152457216D01*
X181717585Y-152545369D01*
X182058639Y-152567409D01*
X182397439Y-152522489D01*
X182720966Y-152412336D01*
X182919274Y-152306338D01*
X183027107Y-152031712D01*
X182000000Y-151004605D01*
X180972893Y-152031712D01*
X173027107Y-152031712D01*
X172000000Y-151004605D01*
X170972893Y-152031712D01*
X143260753Y-152031712D01*
X143550849Y-151497118D01*
X143741179Y-150883639D01*
X170257591Y-150883639D01*
X170302511Y-151222439D01*
X170412664Y-151545966D01*
X170518662Y-151744274D01*
X170793288Y-151852107D01*
X171820395Y-150825000D01*
X172179605Y-150825000D01*
X173206712Y-151852107D01*
X173481338Y-151744274D01*
X173632216Y-151437616D01*
X173720369Y-151107415D01*
X173734830Y-150883639D01*
X180257591Y-150883639D01*
X180302511Y-151222439D01*
X180412664Y-151545966D01*
X180518662Y-151744274D01*
X180793288Y-151852107D01*
X181820395Y-150825000D01*
X182179605Y-150825000D01*
X183206712Y-151852107D01*
X183481338Y-151744274D01*
X183632216Y-151437616D01*
X183720369Y-151107415D01*
X183742409Y-150766361D01*
X183697489Y-150427561D01*
X183587336Y-150104034D01*
X183518738Y-149975695D01*
X191146520Y-149975695D01*
X191215822Y-150727938D01*
X191430548Y-151452208D01*
X191782445Y-152120670D01*
X191809452Y-152161088D01*
X192299119Y-152521276D01*
X194820395Y-150000000D01*
X195179605Y-150000000D01*
X197700881Y-152521276D01*
X198190548Y-152161088D01*
X198550849Y-151497118D01*
X198774694Y-150775615D01*
X198853480Y-150024305D01*
X198784178Y-149272062D01*
X198569452Y-148547792D01*
X198217555Y-147879330D01*
X198190548Y-147838912D01*
X197700881Y-147478724D01*
X195179605Y-150000000D01*
X194820395Y-150000000D01*
X192299119Y-147478724D01*
X191809452Y-147838912D01*
X191449151Y-148502882D01*
X191225306Y-149224385D01*
X191146520Y-149975695D01*
X183518738Y-149975695D01*
X183481338Y-149905726D01*
X183206712Y-149797893D01*
X182179605Y-150825000D01*
X181820395Y-150825000D01*
X180793288Y-149797893D01*
X180518662Y-149905726D01*
X180367784Y-150212384D01*
X180279631Y-150542585D01*
X180257591Y-150883639D01*
X173734830Y-150883639D01*
X173742409Y-150766361D01*
X173697489Y-150427561D01*
X173587336Y-150104034D01*
X173481338Y-149905726D01*
X173206712Y-149797893D01*
X172179605Y-150825000D01*
X171820395Y-150825000D01*
X170793288Y-149797893D01*
X170518662Y-149905726D01*
X170367784Y-150212384D01*
X170279631Y-150542585D01*
X170257591Y-150883639D01*
X143741179Y-150883639D01*
X143774694Y-150775615D01*
X143853480Y-150024305D01*
X143816075Y-149618288D01*
X170972893Y-149618288D01*
X172000000Y-150645395D01*
X173027107Y-149618288D01*
X172919274Y-149343662D01*
X172612616Y-149192784D01*
X172282415Y-149104631D01*
X171941361Y-149082591D01*
X171602561Y-149127511D01*
X171279034Y-149237664D01*
X171080726Y-149343662D01*
X170972893Y-149618288D01*
X143816075Y-149618288D01*
X143784178Y-149272062D01*
X143601593Y-148656203D01*
X175540000Y-148656203D01*
X175540000Y-148943797D01*
X175596107Y-149225866D01*
X175706165Y-149491569D01*
X175865944Y-149730696D01*
X176069304Y-149934056D01*
X176308431Y-150093835D01*
X176574134Y-150203893D01*
X176856203Y-150260000D01*
X177143797Y-150260000D01*
X177425866Y-150203893D01*
X177691569Y-150093835D01*
X177930696Y-149934056D01*
X178134056Y-149730696D01*
X178209164Y-149618288D01*
X180972893Y-149618288D01*
X182000000Y-150645395D01*
X183027107Y-149618288D01*
X182919274Y-149343662D01*
X182612616Y-149192784D01*
X182282415Y-149104631D01*
X181941361Y-149082591D01*
X181602561Y-149127511D01*
X181279034Y-149237664D01*
X181080726Y-149343662D01*
X180972893Y-149618288D01*
X178209164Y-149618288D01*
X178293835Y-149491569D01*
X178403893Y-149225866D01*
X178460000Y-148943797D01*
X178460000Y-148656203D01*
X178403893Y-148374134D01*
X178293835Y-148108431D01*
X178134056Y-147869304D01*
X177930696Y-147665944D01*
X177691569Y-147506165D01*
X177425866Y-147396107D01*
X177143797Y-147340000D01*
X176856203Y-147340000D01*
X176574134Y-147396107D01*
X176308431Y-147506165D01*
X176069304Y-147665944D01*
X175865944Y-147869304D01*
X175706165Y-148108431D01*
X175596107Y-148374134D01*
X175540000Y-148656203D01*
X143601593Y-148656203D01*
X143569452Y-148547792D01*
X143217555Y-147879330D01*
X143190548Y-147838912D01*
X142700881Y-147478724D01*
X140179605Y-150000000D01*
X139820395Y-150000000D01*
X137299119Y-147478724D01*
X136809452Y-147838912D01*
X136449151Y-148502882D01*
X136225306Y-149224385D01*
X136146520Y-149975695D01*
X135710127Y-149975695D01*
X135710000Y-149973970D01*
X135710000Y-147299119D01*
X137478724Y-147299119D01*
X140000000Y-149820395D01*
X142521276Y-147299119D01*
X142161088Y-146809452D01*
X141792184Y-146609267D01*
X145283680Y-146609267D01*
X145357558Y-146890830D01*
X145484947Y-147152570D01*
X145660951Y-147384429D01*
X145878807Y-147577496D01*
X146130142Y-147724352D01*
X146393110Y-147816476D01*
X146623000Y-147695155D01*
X146623000Y-146377000D01*
X145423835Y-146377000D01*
X145283680Y-146609267D01*
X141792184Y-146609267D01*
X141497118Y-146449151D01*
X140775615Y-146225306D01*
X140024305Y-146146520D01*
X139272062Y-146215822D01*
X138547792Y-146430548D01*
X137879330Y-146782445D01*
X137838912Y-146809452D01*
X137478724Y-147299119D01*
X135710000Y-147299119D01*
X135710000Y-145890733D01*
X145283680Y-145890733D01*
X145423835Y-146123000D01*
X146623000Y-146123000D01*
X146623000Y-144804845D01*
X146877000Y-144804845D01*
X146877000Y-146123000D01*
X146897000Y-146123000D01*
X146897000Y-146377000D01*
X146877000Y-146377000D01*
X146877000Y-147695155D01*
X147106890Y-147816476D01*
X147369858Y-147724352D01*
X147621193Y-147577496D01*
X147839049Y-147384429D01*
X147995538Y-147178278D01*
X148009294Y-147204013D01*
X148194866Y-147430134D01*
X148420986Y-147615706D01*
X148678966Y-147753599D01*
X148958889Y-147838513D01*
X149250000Y-147867185D01*
X149541110Y-147838513D01*
X149821033Y-147753599D01*
X150079013Y-147615706D01*
X150305134Y-147430134D01*
X150490706Y-147204014D01*
X150500000Y-147186626D01*
X150509294Y-147204013D01*
X150694866Y-147430134D01*
X150920986Y-147615706D01*
X151178966Y-147753599D01*
X151458889Y-147838513D01*
X151750000Y-147867185D01*
X152041110Y-147838513D01*
X152321033Y-147753599D01*
X152579013Y-147615706D01*
X152805134Y-147430134D01*
X152857223Y-147366663D01*
X152911595Y-147468386D01*
X153022038Y-147602962D01*
X153156614Y-147713405D01*
X153310150Y-147795472D01*
X153476746Y-147846008D01*
X153650000Y-147863072D01*
X154850000Y-147863072D01*
X155023254Y-147846008D01*
X155189850Y-147795472D01*
X155343386Y-147713405D01*
X155477962Y-147602962D01*
X155588405Y-147468386D01*
X155670472Y-147314850D01*
X155721008Y-147148254D01*
X155738072Y-146975000D01*
X155738072Y-145525000D01*
X155721008Y-145351746D01*
X155670472Y-145185150D01*
X155588405Y-145031614D01*
X155477962Y-144897038D01*
X155343386Y-144786595D01*
X155189850Y-144704528D01*
X155023254Y-144653992D01*
X154850000Y-144636928D01*
X153650000Y-144636928D01*
X153476746Y-144653992D01*
X153310150Y-144704528D01*
X153156614Y-144786595D01*
X153022038Y-144897038D01*
X152911595Y-145031614D01*
X152857223Y-145133337D01*
X152805134Y-145069866D01*
X152579014Y-144884294D01*
X152321034Y-144746401D01*
X152041111Y-144661487D01*
X151750000Y-144632815D01*
X151458890Y-144661487D01*
X151178967Y-144746401D01*
X150920987Y-144884294D01*
X150694866Y-145069866D01*
X150509294Y-145295986D01*
X150500000Y-145313374D01*
X150490706Y-145295986D01*
X150305134Y-145069866D01*
X150079014Y-144884294D01*
X149821034Y-144746401D01*
X149541111Y-144661487D01*
X149250000Y-144632815D01*
X148958890Y-144661487D01*
X148678967Y-144746401D01*
X148420987Y-144884294D01*
X148194866Y-145069866D01*
X148009294Y-145295986D01*
X147995538Y-145321722D01*
X147839049Y-145115571D01*
X147621193Y-144922504D01*
X147369858Y-144775648D01*
X147106890Y-144683524D01*
X146877000Y-144804845D01*
X146623000Y-144804845D01*
X146393110Y-144683524D01*
X146130142Y-144775648D01*
X145878807Y-144922504D01*
X145660951Y-145115571D01*
X145484947Y-145347430D01*
X145357558Y-145609170D01*
X145283680Y-145890733D01*
X135710000Y-145890733D01*
X135710000Y-141838967D01*
X166635000Y-141838967D01*
X166635000Y-142161033D01*
X166697832Y-142476912D01*
X166821082Y-142774463D01*
X167000013Y-143042252D01*
X167207761Y-143250000D01*
X167000013Y-143457748D01*
X166821082Y-143725537D01*
X166697832Y-144023088D01*
X166635000Y-144338967D01*
X166635000Y-144661033D01*
X166697832Y-144976912D01*
X166821082Y-145274463D01*
X167000013Y-145542252D01*
X167207761Y-145750000D01*
X167000013Y-145957748D01*
X166821082Y-146225537D01*
X166697832Y-146523088D01*
X166635000Y-146838967D01*
X166635000Y-147161033D01*
X166697832Y-147476912D01*
X166821082Y-147774463D01*
X167000013Y-148042252D01*
X167227748Y-148269987D01*
X167495537Y-148448918D01*
X167793088Y-148572168D01*
X168108967Y-148635000D01*
X168431033Y-148635000D01*
X168746912Y-148572168D01*
X169044463Y-148448918D01*
X169312252Y-148269987D01*
X169539987Y-148042252D01*
X169718918Y-147774463D01*
X169842168Y-147476912D01*
X169877533Y-147299119D01*
X192478724Y-147299119D01*
X195000000Y-149820395D01*
X197521276Y-147299119D01*
X197161088Y-146809452D01*
X196497118Y-146449151D01*
X195775615Y-146225306D01*
X195024305Y-146146520D01*
X194272062Y-146215822D01*
X193547792Y-146430548D01*
X192879330Y-146782445D01*
X192838912Y-146809452D01*
X192478724Y-147299119D01*
X169877533Y-147299119D01*
X169905000Y-147161033D01*
X169905000Y-146838967D01*
X169842168Y-146523088D01*
X169718918Y-146225537D01*
X169539987Y-145957748D01*
X169332239Y-145750000D01*
X169539987Y-145542252D01*
X169718918Y-145274463D01*
X169842168Y-144976912D01*
X169905000Y-144661033D01*
X169905000Y-144338967D01*
X169842168Y-144023088D01*
X169718918Y-143725537D01*
X169539987Y-143457748D01*
X169332239Y-143250000D01*
X169539987Y-143042252D01*
X169718918Y-142774463D01*
X169842168Y-142476912D01*
X169905000Y-142161033D01*
X169905000Y-141838967D01*
X169842168Y-141523088D01*
X169718918Y-141225537D01*
X169539987Y-140957748D01*
X169312252Y-140730013D01*
X169105000Y-140591532D01*
X169105000Y-140056203D01*
X175540000Y-140056203D01*
X175540000Y-140343797D01*
X175596107Y-140625866D01*
X175706165Y-140891569D01*
X175865944Y-141130696D01*
X176069304Y-141334056D01*
X176308431Y-141493835D01*
X176574134Y-141603893D01*
X176856203Y-141660000D01*
X177143797Y-141660000D01*
X177425866Y-141603893D01*
X177691569Y-141493835D01*
X177930696Y-141334056D01*
X178134056Y-141130696D01*
X178293835Y-140891569D01*
X178403893Y-140625866D01*
X178460000Y-140343797D01*
X178460000Y-140056203D01*
X178403893Y-139774134D01*
X178293835Y-139508431D01*
X178209165Y-139381712D01*
X180972893Y-139381712D01*
X181080726Y-139656338D01*
X181387384Y-139807216D01*
X181717585Y-139895369D01*
X182058639Y-139917409D01*
X182397439Y-139872489D01*
X182720966Y-139762336D01*
X182919274Y-139656338D01*
X183027107Y-139381712D01*
X182000000Y-138354605D01*
X180972893Y-139381712D01*
X178209165Y-139381712D01*
X178134056Y-139269304D01*
X177930696Y-139065944D01*
X177691569Y-138906165D01*
X177425866Y-138796107D01*
X177143797Y-138740000D01*
X176856203Y-138740000D01*
X176574134Y-138796107D01*
X176308431Y-138906165D01*
X176069304Y-139065944D01*
X175865944Y-139269304D01*
X175706165Y-139508431D01*
X175596107Y-139774134D01*
X175540000Y-140056203D01*
X169105000Y-140056203D01*
X169105000Y-139381712D01*
X170972893Y-139381712D01*
X171080726Y-139656338D01*
X171387384Y-139807216D01*
X171717585Y-139895369D01*
X172058639Y-139917409D01*
X172397439Y-139872489D01*
X172720966Y-139762336D01*
X172919274Y-139656338D01*
X173027107Y-139381712D01*
X172000000Y-138354605D01*
X170972893Y-139381712D01*
X169105000Y-139381712D01*
X169105000Y-138233639D01*
X170257591Y-138233639D01*
X170302511Y-138572439D01*
X170412664Y-138895966D01*
X170518662Y-139094274D01*
X170793288Y-139202107D01*
X171820395Y-138175000D01*
X172179605Y-138175000D01*
X173206712Y-139202107D01*
X173481338Y-139094274D01*
X173632216Y-138787616D01*
X173720369Y-138457415D01*
X173734830Y-138233639D01*
X180257591Y-138233639D01*
X180302511Y-138572439D01*
X180412664Y-138895966D01*
X180518662Y-139094274D01*
X180793288Y-139202107D01*
X181820395Y-138175000D01*
X182179605Y-138175000D01*
X183206712Y-139202107D01*
X183481338Y-139094274D01*
X183632216Y-138787616D01*
X183720369Y-138457415D01*
X183742409Y-138116361D01*
X183697489Y-137777561D01*
X183671382Y-137700881D01*
X192478724Y-137700881D01*
X192838912Y-138190548D01*
X193502882Y-138550849D01*
X194224385Y-138774694D01*
X194975695Y-138853480D01*
X195727938Y-138784178D01*
X196452208Y-138569452D01*
X197120670Y-138217555D01*
X197161088Y-138190548D01*
X197521276Y-137700881D01*
X195000000Y-135179605D01*
X192478724Y-137700881D01*
X183671382Y-137700881D01*
X183587336Y-137454034D01*
X183481338Y-137255726D01*
X183206712Y-137147893D01*
X182179605Y-138175000D01*
X181820395Y-138175000D01*
X180793288Y-137147893D01*
X180518662Y-137255726D01*
X180367784Y-137562384D01*
X180279631Y-137892585D01*
X180257591Y-138233639D01*
X173734830Y-138233639D01*
X173742409Y-138116361D01*
X173697489Y-137777561D01*
X173587336Y-137454034D01*
X173481338Y-137255726D01*
X173206712Y-137147893D01*
X172179605Y-138175000D01*
X171820395Y-138175000D01*
X170793288Y-137147893D01*
X170518662Y-137255726D01*
X170367784Y-137562384D01*
X170279631Y-137892585D01*
X170257591Y-138233639D01*
X169105000Y-138233639D01*
X169105000Y-136968288D01*
X170972893Y-136968288D01*
X172000000Y-137995395D01*
X173027107Y-136968288D01*
X172919274Y-136693662D01*
X172612616Y-136542784D01*
X172282415Y-136454631D01*
X171941361Y-136432591D01*
X171602561Y-136477511D01*
X171279034Y-136587664D01*
X171080726Y-136693662D01*
X170972893Y-136968288D01*
X169105000Y-136968288D01*
X169105000Y-135075867D01*
X169545868Y-134635000D01*
X169611788Y-134635000D01*
X169831067Y-134591383D01*
X170037624Y-134505824D01*
X170223520Y-134381612D01*
X170270132Y-134335000D01*
X171884133Y-134335000D01*
X172913628Y-135364496D01*
X172865000Y-135608967D01*
X172865000Y-135931033D01*
X172927832Y-136246912D01*
X173051082Y-136544463D01*
X173230013Y-136812252D01*
X173457748Y-137039987D01*
X173725537Y-137218918D01*
X174023088Y-137342168D01*
X174338967Y-137405000D01*
X174661033Y-137405000D01*
X174976912Y-137342168D01*
X175274463Y-137218918D01*
X175542252Y-137039987D01*
X175750000Y-136832239D01*
X175957748Y-137039987D01*
X176225537Y-137218918D01*
X176523088Y-137342168D01*
X176838967Y-137405000D01*
X177161033Y-137405000D01*
X177476912Y-137342168D01*
X177774463Y-137218918D01*
X178042252Y-137039987D01*
X178250000Y-136832239D01*
X178457748Y-137039987D01*
X178725537Y-137218918D01*
X179023088Y-137342168D01*
X179338967Y-137405000D01*
X179661033Y-137405000D01*
X179976912Y-137342168D01*
X180274463Y-137218918D01*
X180542252Y-137039987D01*
X180613951Y-136968288D01*
X180972893Y-136968288D01*
X182000000Y-137995395D01*
X183027107Y-136968288D01*
X182919274Y-136693662D01*
X182612616Y-136542784D01*
X182282415Y-136454631D01*
X181941361Y-136432591D01*
X181602561Y-136477511D01*
X181279034Y-136587664D01*
X181080726Y-136693662D01*
X180972893Y-136968288D01*
X180613951Y-136968288D01*
X180769987Y-136812252D01*
X180948918Y-136544463D01*
X181072168Y-136246912D01*
X181135000Y-135931033D01*
X181135000Y-135608967D01*
X181072168Y-135293088D01*
X180948918Y-134995537D01*
X180935660Y-134975695D01*
X191146520Y-134975695D01*
X191215822Y-135727938D01*
X191430548Y-136452208D01*
X191782445Y-137120670D01*
X191809452Y-137161088D01*
X192299119Y-137521276D01*
X194820395Y-135000000D01*
X195179605Y-135000000D01*
X197700881Y-137521276D01*
X198190548Y-137161088D01*
X198550849Y-136497118D01*
X198774694Y-135775615D01*
X198853480Y-135024305D01*
X198784178Y-134272062D01*
X198569452Y-133547792D01*
X198217555Y-132879330D01*
X198190548Y-132838912D01*
X197700881Y-132478724D01*
X195179605Y-135000000D01*
X194820395Y-135000000D01*
X192299119Y-132478724D01*
X191809452Y-132838912D01*
X191449151Y-133502882D01*
X191225306Y-134224385D01*
X191146520Y-134975695D01*
X180935660Y-134975695D01*
X180769987Y-134727748D01*
X180542252Y-134500013D01*
X180274463Y-134321082D01*
X179976912Y-134197832D01*
X179661033Y-134135000D01*
X179338967Y-134135000D01*
X179023088Y-134197832D01*
X178725537Y-134321082D01*
X178457748Y-134500013D01*
X178250000Y-134707761D01*
X178042252Y-134500013D01*
X177774463Y-134321082D01*
X177476912Y-134197832D01*
X177161033Y-134135000D01*
X176838967Y-134135000D01*
X176523088Y-134197832D01*
X176225537Y-134321082D01*
X175957748Y-134500013D01*
X175750000Y-134707761D01*
X175542252Y-134500013D01*
X175274463Y-134321082D01*
X174976912Y-134197832D01*
X174661033Y-134135000D01*
X174338967Y-134135000D01*
X174094496Y-134183628D01*
X172849446Y-132938579D01*
X172823291Y-132906709D01*
X172696146Y-132802364D01*
X172551087Y-132724828D01*
X172393689Y-132677082D01*
X172271019Y-132665000D01*
X172271018Y-132665000D01*
X172230000Y-132660960D01*
X172188982Y-132665000D01*
X170270132Y-132665000D01*
X170223520Y-132618388D01*
X170037624Y-132494176D01*
X169831067Y-132408617D01*
X169611788Y-132365000D01*
X169388212Y-132365000D01*
X169168933Y-132408617D01*
X168962376Y-132494176D01*
X168776480Y-132618388D01*
X168618388Y-132776480D01*
X168494176Y-132962376D01*
X168408617Y-133168933D01*
X168365000Y-133388212D01*
X168365000Y-133454132D01*
X167708574Y-134110559D01*
X167676710Y-134136709D01*
X167650562Y-134168571D01*
X167572364Y-134263855D01*
X167494828Y-134408914D01*
X167447082Y-134566312D01*
X167430960Y-134730000D01*
X167435001Y-134771028D01*
X167435000Y-140591531D01*
X167227748Y-140730013D01*
X167000013Y-140957748D01*
X166821082Y-141225537D01*
X166697832Y-141523088D01*
X166635000Y-141838967D01*
X135710000Y-141838967D01*
X135710000Y-137700881D01*
X137478724Y-137700881D01*
X137838912Y-138190548D01*
X138502882Y-138550849D01*
X139224385Y-138774694D01*
X139975695Y-138853480D01*
X140727938Y-138784178D01*
X141452208Y-138569452D01*
X142120670Y-138217555D01*
X142161088Y-138190548D01*
X142521276Y-137700881D01*
X140000000Y-135179605D01*
X137478724Y-137700881D01*
X135710000Y-137700881D01*
X135710000Y-135031618D01*
X135714991Y-134975695D01*
X136146520Y-134975695D01*
X136215822Y-135727938D01*
X136430548Y-136452208D01*
X136782445Y-137120670D01*
X136809452Y-137161088D01*
X137299119Y-137521276D01*
X139820395Y-135000000D01*
X140179605Y-135000000D01*
X142700881Y-137521276D01*
X143190548Y-137161088D01*
X143550849Y-136497118D01*
X143774694Y-135775615D01*
X143853480Y-135024305D01*
X143784178Y-134272062D01*
X143569452Y-133547792D01*
X143217555Y-132879330D01*
X143190548Y-132838912D01*
X142700881Y-132478724D01*
X140179605Y-135000000D01*
X139820395Y-135000000D01*
X137299119Y-132478724D01*
X136809452Y-132838912D01*
X136449151Y-133502882D01*
X136225306Y-134224385D01*
X136146520Y-134975695D01*
X135714991Y-134975695D01*
X135780578Y-134240808D01*
X135981705Y-133505611D01*
X136309846Y-132817649D01*
X136682447Y-132299119D01*
X137478724Y-132299119D01*
X140000000Y-134820395D01*
X142521276Y-132299119D01*
X192478724Y-132299119D01*
X195000000Y-134820395D01*
X197521276Y-132299119D01*
X197161088Y-131809452D01*
X196497118Y-131449151D01*
X195775615Y-131225306D01*
X195024305Y-131146520D01*
X194272062Y-131215822D01*
X193547792Y-131430548D01*
X192879330Y-131782445D01*
X192838912Y-131809452D01*
X192478724Y-132299119D01*
X142521276Y-132299119D01*
X142161088Y-131809452D01*
X141497118Y-131449151D01*
X140775615Y-131225306D01*
X140024305Y-131146520D01*
X139272062Y-131215822D01*
X138547792Y-131430548D01*
X137879330Y-131782445D01*
X137838912Y-131809452D01*
X137478724Y-132299119D01*
X136682447Y-132299119D01*
X136754628Y-132198669D01*
X137301988Y-131668239D01*
X137934639Y-131243116D01*
X138632561Y-130936749D01*
X139379183Y-130757501D01*
X140026030Y-130710000D01*
X194968382Y-130710000D01*
X195759192Y-130780578D01*
G37*
X195759192Y-130780578D02*
X196494389Y-130981705D01*
X197182351Y-131309846D01*
X197801331Y-131754628D01*
X198331761Y-132301988D01*
X198756884Y-132934639D01*
X199063251Y-133632561D01*
X199242499Y-134379183D01*
X199290000Y-135026030D01*
X199290001Y-149968370D01*
X199219422Y-150759193D01*
X199018295Y-151494389D01*
X198690152Y-152182355D01*
X198245374Y-152801328D01*
X197698012Y-153331761D01*
X197065362Y-153756883D01*
X196367439Y-154063251D01*
X195620819Y-154242499D01*
X194973970Y-154290000D01*
X140031618Y-154290000D01*
X139240807Y-154219422D01*
X138505611Y-154018295D01*
X137817645Y-153690152D01*
X137198672Y-153245374D01*
X136671020Y-152700881D01*
X137478724Y-152700881D01*
X137838912Y-153190548D01*
X138502882Y-153550849D01*
X139224385Y-153774694D01*
X139975695Y-153853480D01*
X140727938Y-153784178D01*
X141452208Y-153569452D01*
X142120670Y-153217555D01*
X142161088Y-153190548D01*
X142521276Y-152700881D01*
X192478724Y-152700881D01*
X192838912Y-153190548D01*
X193502882Y-153550849D01*
X194224385Y-153774694D01*
X194975695Y-153853480D01*
X195727938Y-153784178D01*
X196452208Y-153569452D01*
X197120670Y-153217555D01*
X197161088Y-153190548D01*
X197521276Y-152700881D01*
X195000000Y-150179605D01*
X192478724Y-152700881D01*
X142521276Y-152700881D01*
X140000000Y-150179605D01*
X137478724Y-152700881D01*
X136671020Y-152700881D01*
X136668239Y-152698012D01*
X136243117Y-152065362D01*
X135936749Y-151367439D01*
X135757501Y-150620819D01*
X135710127Y-149975695D01*
X136146520Y-149975695D01*
X136215822Y-150727938D01*
X136430548Y-151452208D01*
X136782445Y-152120670D01*
X136809452Y-152161088D01*
X137299119Y-152521276D01*
X139820395Y-150000000D01*
X140179605Y-150000000D01*
X142700881Y-152521276D01*
X143190548Y-152161088D01*
X143260753Y-152031712D01*
X170972893Y-152031712D01*
X171080726Y-152306338D01*
X171387384Y-152457216D01*
X171717585Y-152545369D01*
X172058639Y-152567409D01*
X172397439Y-152522489D01*
X172720966Y-152412336D01*
X172919274Y-152306338D01*
X173027107Y-152031712D01*
X180972893Y-152031712D01*
X181080726Y-152306338D01*
X181387384Y-152457216D01*
X181717585Y-152545369D01*
X182058639Y-152567409D01*
X182397439Y-152522489D01*
X182720966Y-152412336D01*
X182919274Y-152306338D01*
X183027107Y-152031712D01*
X182000000Y-151004605D01*
X180972893Y-152031712D01*
X173027107Y-152031712D01*
X172000000Y-151004605D01*
X170972893Y-152031712D01*
X143260753Y-152031712D01*
X143550849Y-151497118D01*
X143741179Y-150883639D01*
X170257591Y-150883639D01*
X170302511Y-151222439D01*
X170412664Y-151545966D01*
X170518662Y-151744274D01*
X170793288Y-151852107D01*
X171820395Y-150825000D01*
X172179605Y-150825000D01*
X173206712Y-151852107D01*
X173481338Y-151744274D01*
X173632216Y-151437616D01*
X173720369Y-151107415D01*
X173734830Y-150883639D01*
X180257591Y-150883639D01*
X180302511Y-151222439D01*
X180412664Y-151545966D01*
X180518662Y-151744274D01*
X180793288Y-151852107D01*
X181820395Y-150825000D01*
X182179605Y-150825000D01*
X183206712Y-151852107D01*
X183481338Y-151744274D01*
X183632216Y-151437616D01*
X183720369Y-151107415D01*
X183742409Y-150766361D01*
X183697489Y-150427561D01*
X183587336Y-150104034D01*
X183518738Y-149975695D01*
X191146520Y-149975695D01*
X191215822Y-150727938D01*
X191430548Y-151452208D01*
X191782445Y-152120670D01*
X191809452Y-152161088D01*
X192299119Y-152521276D01*
X194820395Y-150000000D01*
X195179605Y-150000000D01*
X197700881Y-152521276D01*
X198190548Y-152161088D01*
X198550849Y-151497118D01*
X198774694Y-150775615D01*
X198853480Y-150024305D01*
X198784178Y-149272062D01*
X198569452Y-148547792D01*
X198217555Y-147879330D01*
X198190548Y-147838912D01*
X197700881Y-147478724D01*
X195179605Y-150000000D01*
X194820395Y-150000000D01*
X192299119Y-147478724D01*
X191809452Y-147838912D01*
X191449151Y-148502882D01*
X191225306Y-149224385D01*
X191146520Y-149975695D01*
X183518738Y-149975695D01*
X183481338Y-149905726D01*
X183206712Y-149797893D01*
X182179605Y-150825000D01*
X181820395Y-150825000D01*
X180793288Y-149797893D01*
X180518662Y-149905726D01*
X180367784Y-150212384D01*
X180279631Y-150542585D01*
X180257591Y-150883639D01*
X173734830Y-150883639D01*
X173742409Y-150766361D01*
X173697489Y-150427561D01*
X173587336Y-150104034D01*
X173481338Y-149905726D01*
X173206712Y-149797893D01*
X172179605Y-150825000D01*
X171820395Y-150825000D01*
X170793288Y-149797893D01*
X170518662Y-149905726D01*
X170367784Y-150212384D01*
X170279631Y-150542585D01*
X170257591Y-150883639D01*
X143741179Y-150883639D01*
X143774694Y-150775615D01*
X143853480Y-150024305D01*
X143816075Y-149618288D01*
X170972893Y-149618288D01*
X172000000Y-150645395D01*
X173027107Y-149618288D01*
X172919274Y-149343662D01*
X172612616Y-149192784D01*
X172282415Y-149104631D01*
X171941361Y-149082591D01*
X171602561Y-149127511D01*
X171279034Y-149237664D01*
X171080726Y-149343662D01*
X170972893Y-149618288D01*
X143816075Y-149618288D01*
X143784178Y-149272062D01*
X143601593Y-148656203D01*
X175540000Y-148656203D01*
X175540000Y-148943797D01*
X175596107Y-149225866D01*
X175706165Y-149491569D01*
X175865944Y-149730696D01*
X176069304Y-149934056D01*
X176308431Y-150093835D01*
X176574134Y-150203893D01*
X176856203Y-150260000D01*
X177143797Y-150260000D01*
X177425866Y-150203893D01*
X177691569Y-150093835D01*
X177930696Y-149934056D01*
X178134056Y-149730696D01*
X178209164Y-149618288D01*
X180972893Y-149618288D01*
X182000000Y-150645395D01*
X183027107Y-149618288D01*
X182919274Y-149343662D01*
X182612616Y-149192784D01*
X182282415Y-149104631D01*
X181941361Y-149082591D01*
X181602561Y-149127511D01*
X181279034Y-149237664D01*
X181080726Y-149343662D01*
X180972893Y-149618288D01*
X178209164Y-149618288D01*
X178293835Y-149491569D01*
X178403893Y-149225866D01*
X178460000Y-148943797D01*
X178460000Y-148656203D01*
X178403893Y-148374134D01*
X178293835Y-148108431D01*
X178134056Y-147869304D01*
X177930696Y-147665944D01*
X177691569Y-147506165D01*
X177425866Y-147396107D01*
X177143797Y-147340000D01*
X176856203Y-147340000D01*
X176574134Y-147396107D01*
X176308431Y-147506165D01*
X176069304Y-147665944D01*
X175865944Y-147869304D01*
X175706165Y-148108431D01*
X175596107Y-148374134D01*
X175540000Y-148656203D01*
X143601593Y-148656203D01*
X143569452Y-148547792D01*
X143217555Y-147879330D01*
X143190548Y-147838912D01*
X142700881Y-147478724D01*
X140179605Y-150000000D01*
X139820395Y-150000000D01*
X137299119Y-147478724D01*
X136809452Y-147838912D01*
X136449151Y-148502882D01*
X136225306Y-149224385D01*
X136146520Y-149975695D01*
X135710127Y-149975695D01*
X135710000Y-149973970D01*
X135710000Y-147299119D01*
X137478724Y-147299119D01*
X140000000Y-149820395D01*
X142521276Y-147299119D01*
X142161088Y-146809452D01*
X141792184Y-146609267D01*
X145283680Y-146609267D01*
X145357558Y-146890830D01*
X145484947Y-147152570D01*
X145660951Y-147384429D01*
X145878807Y-147577496D01*
X146130142Y-147724352D01*
X146393110Y-147816476D01*
X146623000Y-147695155D01*
X146623000Y-146377000D01*
X145423835Y-146377000D01*
X145283680Y-146609267D01*
X141792184Y-146609267D01*
X141497118Y-146449151D01*
X140775615Y-146225306D01*
X140024305Y-146146520D01*
X139272062Y-146215822D01*
X138547792Y-146430548D01*
X137879330Y-146782445D01*
X137838912Y-146809452D01*
X137478724Y-147299119D01*
X135710000Y-147299119D01*
X135710000Y-145890733D01*
X145283680Y-145890733D01*
X145423835Y-146123000D01*
X146623000Y-146123000D01*
X146623000Y-144804845D01*
X146877000Y-144804845D01*
X146877000Y-146123000D01*
X146897000Y-146123000D01*
X146897000Y-146377000D01*
X146877000Y-146377000D01*
X146877000Y-147695155D01*
X147106890Y-147816476D01*
X147369858Y-147724352D01*
X147621193Y-147577496D01*
X147839049Y-147384429D01*
X147995538Y-147178278D01*
X148009294Y-147204013D01*
X148194866Y-147430134D01*
X148420986Y-147615706D01*
X148678966Y-147753599D01*
X148958889Y-147838513D01*
X149250000Y-147867185D01*
X149541110Y-147838513D01*
X149821033Y-147753599D01*
X150079013Y-147615706D01*
X150305134Y-147430134D01*
X150490706Y-147204014D01*
X150500000Y-147186626D01*
X150509294Y-147204013D01*
X150694866Y-147430134D01*
X150920986Y-147615706D01*
X151178966Y-147753599D01*
X151458889Y-147838513D01*
X151750000Y-147867185D01*
X152041110Y-147838513D01*
X152321033Y-147753599D01*
X152579013Y-147615706D01*
X152805134Y-147430134D01*
X152857223Y-147366663D01*
X152911595Y-147468386D01*
X153022038Y-147602962D01*
X153156614Y-147713405D01*
X153310150Y-147795472D01*
X153476746Y-147846008D01*
X153650000Y-147863072D01*
X154850000Y-147863072D01*
X155023254Y-147846008D01*
X155189850Y-147795472D01*
X155343386Y-147713405D01*
X155477962Y-147602962D01*
X155588405Y-147468386D01*
X155670472Y-147314850D01*
X155721008Y-147148254D01*
X155738072Y-146975000D01*
X155738072Y-145525000D01*
X155721008Y-145351746D01*
X155670472Y-145185150D01*
X155588405Y-145031614D01*
X155477962Y-144897038D01*
X155343386Y-144786595D01*
X155189850Y-144704528D01*
X155023254Y-144653992D01*
X154850000Y-144636928D01*
X153650000Y-144636928D01*
X153476746Y-144653992D01*
X153310150Y-144704528D01*
X153156614Y-144786595D01*
X153022038Y-144897038D01*
X152911595Y-145031614D01*
X152857223Y-145133337D01*
X152805134Y-145069866D01*
X152579014Y-144884294D01*
X152321034Y-144746401D01*
X152041111Y-144661487D01*
X151750000Y-144632815D01*
X151458890Y-144661487D01*
X151178967Y-144746401D01*
X150920987Y-144884294D01*
X150694866Y-145069866D01*
X150509294Y-145295986D01*
X150500000Y-145313374D01*
X150490706Y-145295986D01*
X150305134Y-145069866D01*
X150079014Y-144884294D01*
X149821034Y-144746401D01*
X149541111Y-144661487D01*
X149250000Y-144632815D01*
X148958890Y-144661487D01*
X148678967Y-144746401D01*
X148420987Y-144884294D01*
X148194866Y-145069866D01*
X148009294Y-145295986D01*
X147995538Y-145321722D01*
X147839049Y-145115571D01*
X147621193Y-144922504D01*
X147369858Y-144775648D01*
X147106890Y-144683524D01*
X146877000Y-144804845D01*
X146623000Y-144804845D01*
X146393110Y-144683524D01*
X146130142Y-144775648D01*
X145878807Y-144922504D01*
X145660951Y-145115571D01*
X145484947Y-145347430D01*
X145357558Y-145609170D01*
X145283680Y-145890733D01*
X135710000Y-145890733D01*
X135710000Y-141838967D01*
X166635000Y-141838967D01*
X166635000Y-142161033D01*
X166697832Y-142476912D01*
X166821082Y-142774463D01*
X167000013Y-143042252D01*
X167207761Y-143250000D01*
X167000013Y-143457748D01*
X166821082Y-143725537D01*
X166697832Y-144023088D01*
X166635000Y-144338967D01*
X166635000Y-144661033D01*
X166697832Y-144976912D01*
X166821082Y-145274463D01*
X167000013Y-145542252D01*
X167207761Y-145750000D01*
X167000013Y-145957748D01*
X166821082Y-146225537D01*
X166697832Y-146523088D01*
X166635000Y-146838967D01*
X166635000Y-147161033D01*
X166697832Y-147476912D01*
X166821082Y-147774463D01*
X167000013Y-148042252D01*
X167227748Y-148269987D01*
X167495537Y-148448918D01*
X167793088Y-148572168D01*
X168108967Y-148635000D01*
X168431033Y-148635000D01*
X168746912Y-148572168D01*
X169044463Y-148448918D01*
X169312252Y-148269987D01*
X169539987Y-148042252D01*
X169718918Y-147774463D01*
X169842168Y-147476912D01*
X169877533Y-147299119D01*
X192478724Y-147299119D01*
X195000000Y-149820395D01*
X197521276Y-147299119D01*
X197161088Y-146809452D01*
X196497118Y-146449151D01*
X195775615Y-146225306D01*
X195024305Y-146146520D01*
X194272062Y-146215822D01*
X193547792Y-146430548D01*
X192879330Y-146782445D01*
X192838912Y-146809452D01*
X192478724Y-147299119D01*
X169877533Y-147299119D01*
X169905000Y-147161033D01*
X169905000Y-146838967D01*
X169842168Y-146523088D01*
X169718918Y-146225537D01*
X169539987Y-145957748D01*
X169332239Y-145750000D01*
X169539987Y-145542252D01*
X169718918Y-145274463D01*
X169842168Y-144976912D01*
X169905000Y-144661033D01*
X169905000Y-144338967D01*
X169842168Y-144023088D01*
X169718918Y-143725537D01*
X169539987Y-143457748D01*
X169332239Y-143250000D01*
X169539987Y-143042252D01*
X169718918Y-142774463D01*
X169842168Y-142476912D01*
X169905000Y-142161033D01*
X169905000Y-141838967D01*
X169842168Y-141523088D01*
X169718918Y-141225537D01*
X169539987Y-140957748D01*
X169312252Y-140730013D01*
X169105000Y-140591532D01*
X169105000Y-140056203D01*
X175540000Y-140056203D01*
X175540000Y-140343797D01*
X175596107Y-140625866D01*
X175706165Y-140891569D01*
X175865944Y-141130696D01*
X176069304Y-141334056D01*
X176308431Y-141493835D01*
X176574134Y-141603893D01*
X176856203Y-141660000D01*
X177143797Y-141660000D01*
X177425866Y-141603893D01*
X177691569Y-141493835D01*
X177930696Y-141334056D01*
X178134056Y-141130696D01*
X178293835Y-140891569D01*
X178403893Y-140625866D01*
X178460000Y-140343797D01*
X178460000Y-140056203D01*
X178403893Y-139774134D01*
X178293835Y-139508431D01*
X178209165Y-139381712D01*
X180972893Y-139381712D01*
X181080726Y-139656338D01*
X181387384Y-139807216D01*
X181717585Y-139895369D01*
X182058639Y-139917409D01*
X182397439Y-139872489D01*
X182720966Y-139762336D01*
X182919274Y-139656338D01*
X183027107Y-139381712D01*
X182000000Y-138354605D01*
X180972893Y-139381712D01*
X178209165Y-139381712D01*
X178134056Y-139269304D01*
X177930696Y-139065944D01*
X177691569Y-138906165D01*
X177425866Y-138796107D01*
X177143797Y-138740000D01*
X176856203Y-138740000D01*
X176574134Y-138796107D01*
X176308431Y-138906165D01*
X176069304Y-139065944D01*
X175865944Y-139269304D01*
X175706165Y-139508431D01*
X175596107Y-139774134D01*
X175540000Y-140056203D01*
X169105000Y-140056203D01*
X169105000Y-139381712D01*
X170972893Y-139381712D01*
X171080726Y-139656338D01*
X171387384Y-139807216D01*
X171717585Y-139895369D01*
X172058639Y-139917409D01*
X172397439Y-139872489D01*
X172720966Y-139762336D01*
X172919274Y-139656338D01*
X173027107Y-139381712D01*
X172000000Y-138354605D01*
X170972893Y-139381712D01*
X169105000Y-139381712D01*
X169105000Y-138233639D01*
X170257591Y-138233639D01*
X170302511Y-138572439D01*
X170412664Y-138895966D01*
X170518662Y-139094274D01*
X170793288Y-139202107D01*
X171820395Y-138175000D01*
X172179605Y-138175000D01*
X173206712Y-139202107D01*
X173481338Y-139094274D01*
X173632216Y-138787616D01*
X173720369Y-138457415D01*
X173734830Y-138233639D01*
X180257591Y-138233639D01*
X180302511Y-138572439D01*
X180412664Y-138895966D01*
X180518662Y-139094274D01*
X180793288Y-139202107D01*
X181820395Y-138175000D01*
X182179605Y-138175000D01*
X183206712Y-139202107D01*
X183481338Y-139094274D01*
X183632216Y-138787616D01*
X183720369Y-138457415D01*
X183742409Y-138116361D01*
X183697489Y-137777561D01*
X183671382Y-137700881D01*
X192478724Y-137700881D01*
X192838912Y-138190548D01*
X193502882Y-138550849D01*
X194224385Y-138774694D01*
X194975695Y-138853480D01*
X195727938Y-138784178D01*
X196452208Y-138569452D01*
X197120670Y-138217555D01*
X197161088Y-138190548D01*
X197521276Y-137700881D01*
X195000000Y-135179605D01*
X192478724Y-137700881D01*
X183671382Y-137700881D01*
X183587336Y-137454034D01*
X183481338Y-137255726D01*
X183206712Y-137147893D01*
X182179605Y-138175000D01*
X181820395Y-138175000D01*
X180793288Y-137147893D01*
X180518662Y-137255726D01*
X180367784Y-137562384D01*
X180279631Y-137892585D01*
X180257591Y-138233639D01*
X173734830Y-138233639D01*
X173742409Y-138116361D01*
X173697489Y-137777561D01*
X173587336Y-137454034D01*
X173481338Y-137255726D01*
X173206712Y-137147893D01*
X172179605Y-138175000D01*
X171820395Y-138175000D01*
X170793288Y-137147893D01*
X170518662Y-137255726D01*
X170367784Y-137562384D01*
X170279631Y-137892585D01*
X170257591Y-138233639D01*
X169105000Y-138233639D01*
X169105000Y-136968288D01*
X170972893Y-136968288D01*
X172000000Y-137995395D01*
X173027107Y-136968288D01*
X172919274Y-136693662D01*
X172612616Y-136542784D01*
X172282415Y-136454631D01*
X171941361Y-136432591D01*
X171602561Y-136477511D01*
X171279034Y-136587664D01*
X171080726Y-136693662D01*
X170972893Y-136968288D01*
X169105000Y-136968288D01*
X169105000Y-135075867D01*
X169545868Y-134635000D01*
X169611788Y-134635000D01*
X169831067Y-134591383D01*
X170037624Y-134505824D01*
X170223520Y-134381612D01*
X170270132Y-134335000D01*
X171884133Y-134335000D01*
X172913628Y-135364496D01*
X172865000Y-135608967D01*
X172865000Y-135931033D01*
X172927832Y-136246912D01*
X173051082Y-136544463D01*
X173230013Y-136812252D01*
X173457748Y-137039987D01*
X173725537Y-137218918D01*
X174023088Y-137342168D01*
X174338967Y-137405000D01*
X174661033Y-137405000D01*
X174976912Y-137342168D01*
X175274463Y-137218918D01*
X175542252Y-137039987D01*
X175750000Y-136832239D01*
X175957748Y-137039987D01*
X176225537Y-137218918D01*
X176523088Y-137342168D01*
X176838967Y-137405000D01*
X177161033Y-137405000D01*
X177476912Y-137342168D01*
X177774463Y-137218918D01*
X178042252Y-137039987D01*
X178250000Y-136832239D01*
X178457748Y-137039987D01*
X178725537Y-137218918D01*
X179023088Y-137342168D01*
X179338967Y-137405000D01*
X179661033Y-137405000D01*
X179976912Y-137342168D01*
X180274463Y-137218918D01*
X180542252Y-137039987D01*
X180613951Y-136968288D01*
X180972893Y-136968288D01*
X182000000Y-137995395D01*
X183027107Y-136968288D01*
X182919274Y-136693662D01*
X182612616Y-136542784D01*
X182282415Y-136454631D01*
X181941361Y-136432591D01*
X181602561Y-136477511D01*
X181279034Y-136587664D01*
X181080726Y-136693662D01*
X180972893Y-136968288D01*
X180613951Y-136968288D01*
X180769987Y-136812252D01*
X180948918Y-136544463D01*
X181072168Y-136246912D01*
X181135000Y-135931033D01*
X181135000Y-135608967D01*
X181072168Y-135293088D01*
X180948918Y-134995537D01*
X180935660Y-134975695D01*
X191146520Y-134975695D01*
X191215822Y-135727938D01*
X191430548Y-136452208D01*
X191782445Y-137120670D01*
X191809452Y-137161088D01*
X192299119Y-137521276D01*
X194820395Y-135000000D01*
X195179605Y-135000000D01*
X197700881Y-137521276D01*
X198190548Y-137161088D01*
X198550849Y-136497118D01*
X198774694Y-135775615D01*
X198853480Y-135024305D01*
X198784178Y-134272062D01*
X198569452Y-133547792D01*
X198217555Y-132879330D01*
X198190548Y-132838912D01*
X197700881Y-132478724D01*
X195179605Y-135000000D01*
X194820395Y-135000000D01*
X192299119Y-132478724D01*
X191809452Y-132838912D01*
X191449151Y-133502882D01*
X191225306Y-134224385D01*
X191146520Y-134975695D01*
X180935660Y-134975695D01*
X180769987Y-134727748D01*
X180542252Y-134500013D01*
X180274463Y-134321082D01*
X179976912Y-134197832D01*
X179661033Y-134135000D01*
X179338967Y-134135000D01*
X179023088Y-134197832D01*
X178725537Y-134321082D01*
X178457748Y-134500013D01*
X178250000Y-134707761D01*
X178042252Y-134500013D01*
X177774463Y-134321082D01*
X177476912Y-134197832D01*
X177161033Y-134135000D01*
X176838967Y-134135000D01*
X176523088Y-134197832D01*
X176225537Y-134321082D01*
X175957748Y-134500013D01*
X175750000Y-134707761D01*
X175542252Y-134500013D01*
X175274463Y-134321082D01*
X174976912Y-134197832D01*
X174661033Y-134135000D01*
X174338967Y-134135000D01*
X174094496Y-134183628D01*
X172849446Y-132938579D01*
X172823291Y-132906709D01*
X172696146Y-132802364D01*
X172551087Y-132724828D01*
X172393689Y-132677082D01*
X172271019Y-132665000D01*
X172271018Y-132665000D01*
X172230000Y-132660960D01*
X172188982Y-132665000D01*
X170270132Y-132665000D01*
X170223520Y-132618388D01*
X170037624Y-132494176D01*
X169831067Y-132408617D01*
X169611788Y-132365000D01*
X169388212Y-132365000D01*
X169168933Y-132408617D01*
X168962376Y-132494176D01*
X168776480Y-132618388D01*
X168618388Y-132776480D01*
X168494176Y-132962376D01*
X168408617Y-133168933D01*
X168365000Y-133388212D01*
X168365000Y-133454132D01*
X167708574Y-134110559D01*
X167676710Y-134136709D01*
X167650562Y-134168571D01*
X167572364Y-134263855D01*
X167494828Y-134408914D01*
X167447082Y-134566312D01*
X167430960Y-134730000D01*
X167435001Y-134771028D01*
X167435000Y-140591531D01*
X167227748Y-140730013D01*
X167000013Y-140957748D01*
X166821082Y-141225537D01*
X166697832Y-141523088D01*
X166635000Y-141838967D01*
X135710000Y-141838967D01*
X135710000Y-137700881D01*
X137478724Y-137700881D01*
X137838912Y-138190548D01*
X138502882Y-138550849D01*
X139224385Y-138774694D01*
X139975695Y-138853480D01*
X140727938Y-138784178D01*
X141452208Y-138569452D01*
X142120670Y-138217555D01*
X142161088Y-138190548D01*
X142521276Y-137700881D01*
X140000000Y-135179605D01*
X137478724Y-137700881D01*
X135710000Y-137700881D01*
X135710000Y-135031618D01*
X135714991Y-134975695D01*
X136146520Y-134975695D01*
X136215822Y-135727938D01*
X136430548Y-136452208D01*
X136782445Y-137120670D01*
X136809452Y-137161088D01*
X137299119Y-137521276D01*
X139820395Y-135000000D01*
X140179605Y-135000000D01*
X142700881Y-137521276D01*
X143190548Y-137161088D01*
X143550849Y-136497118D01*
X143774694Y-135775615D01*
X143853480Y-135024305D01*
X143784178Y-134272062D01*
X143569452Y-133547792D01*
X143217555Y-132879330D01*
X143190548Y-132838912D01*
X142700881Y-132478724D01*
X140179605Y-135000000D01*
X139820395Y-135000000D01*
X137299119Y-132478724D01*
X136809452Y-132838912D01*
X136449151Y-133502882D01*
X136225306Y-134224385D01*
X136146520Y-134975695D01*
X135714991Y-134975695D01*
X135780578Y-134240808D01*
X135981705Y-133505611D01*
X136309846Y-132817649D01*
X136682447Y-132299119D01*
X137478724Y-132299119D01*
X140000000Y-134820395D01*
X142521276Y-132299119D01*
X192478724Y-132299119D01*
X195000000Y-134820395D01*
X197521276Y-132299119D01*
X197161088Y-131809452D01*
X196497118Y-131449151D01*
X195775615Y-131225306D01*
X195024305Y-131146520D01*
X194272062Y-131215822D01*
X193547792Y-131430548D01*
X192879330Y-131782445D01*
X192838912Y-131809452D01*
X192478724Y-132299119D01*
X142521276Y-132299119D01*
X142161088Y-131809452D01*
X141497118Y-131449151D01*
X140775615Y-131225306D01*
X140024305Y-131146520D01*
X139272062Y-131215822D01*
X138547792Y-131430548D01*
X137879330Y-131782445D01*
X137838912Y-131809452D01*
X137478724Y-132299119D01*
X136682447Y-132299119D01*
X136754628Y-132198669D01*
X137301988Y-131668239D01*
X137934639Y-131243116D01*
X138632561Y-130936749D01*
X139379183Y-130757501D01*
X140026030Y-130710000D01*
X194968382Y-130710000D01*
X195759192Y-130780578D01*
%TD*%
M02*
