%TF.GenerationSoftware,KiCad,Pcbnew,(5.1.6)-1*%
%TF.CreationDate,2021-04-13T16:40:33+02:00*%
%TF.ProjectId,11_Joystick,31315f4a-6f79-4737-9469-636b2e6b6963,rev?*%
%TF.SameCoordinates,Original*%
%TF.FileFunction,Paste,Top*%
%TF.FilePolarity,Positive*%
%FSLAX46Y46*%
G04 Gerber Fmt 4.6, Leading zero omitted, Abs format (unit mm)*
G04 Created by KiCad (PCBNEW (5.1.6)-1) date 2021-04-13 16:40:33*
%MOMM*%
%LPD*%
G01*
G04 APERTURE LIST*
%TA.AperFunction,Profile*%
%ADD10C,0.150000*%
%TD*%
G04 APERTURE END LIST*
D10*
X140000000Y-130000000D02*
X195000000Y-130000000D01*
X195000000Y-130000000D02*
G75*
G02*
X200000000Y-135000000I0J-5000000D01*
G01*
X200000000Y-150000000D02*
G75*
G02*
X195000000Y-155000000I-5000000J0D01*
G01*
X140000000Y-155000000D02*
G75*
G02*
X135000000Y-150000000I0J5000000D01*
G01*
X135000000Y-135000000D02*
G75*
G02*
X140000000Y-130000000I5000000J0D01*
G01*
X135000000Y-150000000D02*
X135000000Y-135000000D01*
X195000000Y-155000000D02*
X140000000Y-155000000D01*
X200000000Y-135000000D02*
X200000000Y-150000000D01*
%TO.C,C1*%
G36*
G01*
X161237500Y-137900000D02*
X160762500Y-137900000D01*
G75*
G02*
X160525000Y-137662500I0J237500D01*
G01*
X160525000Y-137087500D01*
G75*
G02*
X160762500Y-136850000I237500J0D01*
G01*
X161237500Y-136850000D01*
G75*
G02*
X161475000Y-137087500I0J-237500D01*
G01*
X161475000Y-137662500D01*
G75*
G02*
X161237500Y-137900000I-237500J0D01*
G01*
G37*
G36*
G01*
X161237500Y-136150000D02*
X160762500Y-136150000D01*
G75*
G02*
X160525000Y-135912500I0J237500D01*
G01*
X160525000Y-135337500D01*
G75*
G02*
X160762500Y-135100000I237500J0D01*
G01*
X161237500Y-135100000D01*
G75*
G02*
X161475000Y-135337500I0J-237500D01*
G01*
X161475000Y-135912500D01*
G75*
G02*
X161237500Y-136150000I-237500J0D01*
G01*
G37*
%TD*%
%TO.C,R1*%
G36*
G01*
X162262500Y-135100000D02*
X162737500Y-135100000D01*
G75*
G02*
X162975000Y-135337500I0J-237500D01*
G01*
X162975000Y-135912500D01*
G75*
G02*
X162737500Y-136150000I-237500J0D01*
G01*
X162262500Y-136150000D01*
G75*
G02*
X162025000Y-135912500I0J237500D01*
G01*
X162025000Y-135337500D01*
G75*
G02*
X162262500Y-135100000I237500J0D01*
G01*
G37*
G36*
G01*
X162262500Y-136850000D02*
X162737500Y-136850000D01*
G75*
G02*
X162975000Y-137087500I0J-237500D01*
G01*
X162975000Y-137662500D01*
G75*
G02*
X162737500Y-137900000I-237500J0D01*
G01*
X162262500Y-137900000D01*
G75*
G02*
X162025000Y-137662500I0J237500D01*
G01*
X162025000Y-137087500D01*
G75*
G02*
X162262500Y-136850000I237500J0D01*
G01*
G37*
%TD*%
%TO.C,R2*%
G36*
G01*
X165725000Y-133737500D02*
X165725000Y-133262500D01*
G75*
G02*
X165962500Y-133025000I237500J0D01*
G01*
X166537500Y-133025000D01*
G75*
G02*
X166775000Y-133262500I0J-237500D01*
G01*
X166775000Y-133737500D01*
G75*
G02*
X166537500Y-133975000I-237500J0D01*
G01*
X165962500Y-133975000D01*
G75*
G02*
X165725000Y-133737500I0J237500D01*
G01*
G37*
G36*
G01*
X167475000Y-133737500D02*
X167475000Y-133262500D01*
G75*
G02*
X167712500Y-133025000I237500J0D01*
G01*
X168287500Y-133025000D01*
G75*
G02*
X168525000Y-133262500I0J-237500D01*
G01*
X168525000Y-133737500D01*
G75*
G02*
X168287500Y-133975000I-237500J0D01*
G01*
X167712500Y-133975000D01*
G75*
G02*
X167475000Y-133737500I0J237500D01*
G01*
G37*
%TD*%
%TO.C,R3*%
G36*
G01*
X164237500Y-148025000D02*
X163762500Y-148025000D01*
G75*
G02*
X163525000Y-147787500I0J237500D01*
G01*
X163525000Y-147212500D01*
G75*
G02*
X163762500Y-146975000I237500J0D01*
G01*
X164237500Y-146975000D01*
G75*
G02*
X164475000Y-147212500I0J-237500D01*
G01*
X164475000Y-147787500D01*
G75*
G02*
X164237500Y-148025000I-237500J0D01*
G01*
G37*
G36*
G01*
X164237500Y-149775000D02*
X163762500Y-149775000D01*
G75*
G02*
X163525000Y-149537500I0J237500D01*
G01*
X163525000Y-148962500D01*
G75*
G02*
X163762500Y-148725000I237500J0D01*
G01*
X164237500Y-148725000D01*
G75*
G02*
X164475000Y-148962500I0J-237500D01*
G01*
X164475000Y-149537500D01*
G75*
G02*
X164237500Y-149775000I-237500J0D01*
G01*
G37*
%TD*%
%TO.C,U1*%
G36*
G01*
X163755000Y-139050000D02*
X164055000Y-139050000D01*
G75*
G02*
X164205000Y-139200000I0J-150000D01*
G01*
X164205000Y-140850000D01*
G75*
G02*
X164055000Y-141000000I-150000J0D01*
G01*
X163755000Y-141000000D01*
G75*
G02*
X163605000Y-140850000I0J150000D01*
G01*
X163605000Y-139200000D01*
G75*
G02*
X163755000Y-139050000I150000J0D01*
G01*
G37*
G36*
G01*
X162485000Y-139050000D02*
X162785000Y-139050000D01*
G75*
G02*
X162935000Y-139200000I0J-150000D01*
G01*
X162935000Y-140850000D01*
G75*
G02*
X162785000Y-141000000I-150000J0D01*
G01*
X162485000Y-141000000D01*
G75*
G02*
X162335000Y-140850000I0J150000D01*
G01*
X162335000Y-139200000D01*
G75*
G02*
X162485000Y-139050000I150000J0D01*
G01*
G37*
G36*
G01*
X161215000Y-139050000D02*
X161515000Y-139050000D01*
G75*
G02*
X161665000Y-139200000I0J-150000D01*
G01*
X161665000Y-140850000D01*
G75*
G02*
X161515000Y-141000000I-150000J0D01*
G01*
X161215000Y-141000000D01*
G75*
G02*
X161065000Y-140850000I0J150000D01*
G01*
X161065000Y-139200000D01*
G75*
G02*
X161215000Y-139050000I150000J0D01*
G01*
G37*
G36*
G01*
X159945000Y-139050000D02*
X160245000Y-139050000D01*
G75*
G02*
X160395000Y-139200000I0J-150000D01*
G01*
X160395000Y-140850000D01*
G75*
G02*
X160245000Y-141000000I-150000J0D01*
G01*
X159945000Y-141000000D01*
G75*
G02*
X159795000Y-140850000I0J150000D01*
G01*
X159795000Y-139200000D01*
G75*
G02*
X159945000Y-139050000I150000J0D01*
G01*
G37*
G36*
G01*
X159945000Y-144000000D02*
X160245000Y-144000000D01*
G75*
G02*
X160395000Y-144150000I0J-150000D01*
G01*
X160395000Y-145800000D01*
G75*
G02*
X160245000Y-145950000I-150000J0D01*
G01*
X159945000Y-145950000D01*
G75*
G02*
X159795000Y-145800000I0J150000D01*
G01*
X159795000Y-144150000D01*
G75*
G02*
X159945000Y-144000000I150000J0D01*
G01*
G37*
G36*
G01*
X161215000Y-144000000D02*
X161515000Y-144000000D01*
G75*
G02*
X161665000Y-144150000I0J-150000D01*
G01*
X161665000Y-145800000D01*
G75*
G02*
X161515000Y-145950000I-150000J0D01*
G01*
X161215000Y-145950000D01*
G75*
G02*
X161065000Y-145800000I0J150000D01*
G01*
X161065000Y-144150000D01*
G75*
G02*
X161215000Y-144000000I150000J0D01*
G01*
G37*
G36*
G01*
X162485000Y-144000000D02*
X162785000Y-144000000D01*
G75*
G02*
X162935000Y-144150000I0J-150000D01*
G01*
X162935000Y-145800000D01*
G75*
G02*
X162785000Y-145950000I-150000J0D01*
G01*
X162485000Y-145950000D01*
G75*
G02*
X162335000Y-145800000I0J150000D01*
G01*
X162335000Y-144150000D01*
G75*
G02*
X162485000Y-144000000I150000J0D01*
G01*
G37*
G36*
G01*
X163755000Y-144000000D02*
X164055000Y-144000000D01*
G75*
G02*
X164205000Y-144150000I0J-150000D01*
G01*
X164205000Y-145800000D01*
G75*
G02*
X164055000Y-145950000I-150000J0D01*
G01*
X163755000Y-145950000D01*
G75*
G02*
X163605000Y-145800000I0J150000D01*
G01*
X163605000Y-144150000D01*
G75*
G02*
X163755000Y-144000000I150000J0D01*
G01*
G37*
%TD*%
M02*
