%TF.GenerationSoftware,KiCad,Pcbnew,(5.1.6)-1*%
%TF.CreationDate,2021-04-13T16:40:33+02:00*%
%TF.ProjectId,11_Joystick,31315f4a-6f79-4737-9469-636b2e6b6963,rev?*%
%TF.SameCoordinates,Original*%
%TF.FileFunction,Legend,Top*%
%TF.FilePolarity,Positive*%
%FSLAX46Y46*%
G04 Gerber Fmt 4.6, Leading zero omitted, Abs format (unit mm)*
G04 Created by KiCad (PCBNEW (5.1.6)-1) date 2021-04-13 16:40:33*
%MOMM*%
%LPD*%
G01*
G04 APERTURE LIST*
%TA.AperFunction,Profile*%
%ADD10C,0.150000*%
%TD*%
%ADD11C,0.120000*%
%ADD12C,0.150000*%
G04 APERTURE END LIST*
D10*
X140000000Y-130000000D02*
X195000000Y-130000000D01*
X195000000Y-130000000D02*
G75*
G02*
X200000000Y-135000000I0J-5000000D01*
G01*
X200000000Y-150000000D02*
G75*
G02*
X195000000Y-155000000I-5000000J0D01*
G01*
X140000000Y-155000000D02*
G75*
G02*
X135000000Y-150000000I0J5000000D01*
G01*
X135000000Y-135000000D02*
G75*
G02*
X140000000Y-130000000I5000000J0D01*
G01*
X135000000Y-150000000D02*
X135000000Y-135000000D01*
X195000000Y-155000000D02*
X140000000Y-155000000D01*
X200000000Y-135000000D02*
X200000000Y-150000000D01*
D11*
%TO.C,U2*%
X166500000Y-151500000D02*
X166500000Y-137500000D01*
X166500000Y-137500000D02*
X170000000Y-137500000D01*
X170000000Y-137500000D02*
X170000000Y-134500000D01*
X170000000Y-134500000D02*
X184000000Y-134500000D01*
X184000000Y-134500000D02*
X184000000Y-137500000D01*
X184000000Y-137500000D02*
X190500000Y-137500000D01*
X190500000Y-137500000D02*
X190500000Y-151500000D01*
X190500000Y-151500000D02*
X184000000Y-151500000D01*
X184000000Y-151500000D02*
X184000000Y-153500000D01*
X184000000Y-153500000D02*
X170000000Y-153500000D01*
X170000000Y-153500000D02*
X170000000Y-151500000D01*
X170000000Y-151500000D02*
X166500000Y-151500000D01*
%TO.C,C1*%
X161510000Y-136671267D02*
X161510000Y-136328733D01*
X160490000Y-136671267D02*
X160490000Y-136328733D01*
%TO.C,J1*%
X153950000Y-148350000D02*
X154250000Y-147750000D01*
X154550000Y-148350000D02*
X153950000Y-148350000D01*
X154250000Y-147750000D02*
X154550000Y-148350000D01*
X146500000Y-143050000D02*
X147000000Y-143050000D01*
X146500000Y-137550000D02*
X146500000Y-143050000D01*
X147000000Y-137550000D02*
X146500000Y-137550000D01*
X147000000Y-143050000D02*
X147000000Y-137550000D01*
X149000000Y-143050000D02*
X149500000Y-143050000D01*
X149000000Y-137550000D02*
X149000000Y-143050000D01*
X149500000Y-137550000D02*
X149000000Y-137550000D01*
X149500000Y-143050000D02*
X149500000Y-137550000D01*
X151500000Y-143050000D02*
X152000000Y-143050000D01*
X151500000Y-137550000D02*
X151500000Y-143050000D01*
X152000000Y-137550000D02*
X151500000Y-137550000D01*
X152000000Y-143050000D02*
X152000000Y-137550000D01*
X154000000Y-143050000D02*
X154500000Y-143050000D01*
X154000000Y-137550000D02*
X154000000Y-143050000D01*
X154500000Y-137550000D02*
X154000000Y-137550000D01*
X154500000Y-143050000D02*
X154500000Y-137550000D01*
X145610000Y-144160000D02*
X150500000Y-144160000D01*
X145610000Y-148660000D02*
X145610000Y-144160000D01*
X144190000Y-148660000D02*
X145610000Y-148660000D01*
X144190000Y-136940000D02*
X144190000Y-148660000D01*
X150500000Y-136940000D02*
X144190000Y-136940000D01*
X155390000Y-144160000D02*
X150500000Y-144160000D01*
X155390000Y-148660000D02*
X155390000Y-144160000D01*
X156810000Y-148660000D02*
X155390000Y-148660000D01*
X156810000Y-136940000D02*
X156810000Y-148660000D01*
X150500000Y-136940000D02*
X156810000Y-136940000D01*
%TO.C,R1*%
X161990000Y-136328733D02*
X161990000Y-136671267D01*
X163010000Y-136328733D02*
X163010000Y-136671267D01*
%TO.C,R2*%
X166953733Y-134010000D02*
X167296267Y-134010000D01*
X166953733Y-132990000D02*
X167296267Y-132990000D01*
%TO.C,R3*%
X163490000Y-148546267D02*
X163490000Y-148203733D01*
X164510000Y-148546267D02*
X164510000Y-148203733D01*
%TO.C,U1*%
X164560000Y-142500000D02*
X164560000Y-139050000D01*
X164560000Y-142500000D02*
X164560000Y-144450000D01*
X159440000Y-142500000D02*
X159440000Y-140550000D01*
X159440000Y-142500000D02*
X159440000Y-144450000D01*
%TD*%
%TO.C,U2*%
D12*
X167816380Y-151865904D02*
X168625904Y-151865904D01*
X168721142Y-151818285D01*
X168768761Y-151770666D01*
X168816380Y-151675428D01*
X168816380Y-151484952D01*
X168768761Y-151389714D01*
X168721142Y-151342095D01*
X168625904Y-151294476D01*
X167816380Y-151294476D01*
X167911619Y-150865904D02*
X167864000Y-150818285D01*
X167816380Y-150723047D01*
X167816380Y-150484952D01*
X167864000Y-150389714D01*
X167911619Y-150342095D01*
X168006857Y-150294476D01*
X168102095Y-150294476D01*
X168244952Y-150342095D01*
X168816380Y-150913523D01*
X168816380Y-150294476D01*
%TO.C,H3*%
X194238095Y-146252380D02*
X194238095Y-145252380D01*
X194238095Y-145728571D02*
X194809523Y-145728571D01*
X194809523Y-146252380D02*
X194809523Y-145252380D01*
X195190476Y-145252380D02*
X195809523Y-145252380D01*
X195476190Y-145633333D01*
X195619047Y-145633333D01*
X195714285Y-145680952D01*
X195761904Y-145728571D01*
X195809523Y-145823809D01*
X195809523Y-146061904D01*
X195761904Y-146157142D01*
X195714285Y-146204761D01*
X195619047Y-146252380D01*
X195333333Y-146252380D01*
X195238095Y-146204761D01*
X195190476Y-146157142D01*
%TO.C,H1*%
X139238095Y-131252380D02*
X139238095Y-130252380D01*
X139238095Y-130728571D02*
X139809523Y-130728571D01*
X139809523Y-131252380D02*
X139809523Y-130252380D01*
X140809523Y-131252380D02*
X140238095Y-131252380D01*
X140523809Y-131252380D02*
X140523809Y-130252380D01*
X140428571Y-130395238D01*
X140333333Y-130490476D01*
X140238095Y-130538095D01*
%TO.C,H2*%
X194238095Y-131252380D02*
X194238095Y-130252380D01*
X194238095Y-130728571D02*
X194809523Y-130728571D01*
X194809523Y-131252380D02*
X194809523Y-130252380D01*
X195238095Y-130347619D02*
X195285714Y-130300000D01*
X195380952Y-130252380D01*
X195619047Y-130252380D01*
X195714285Y-130300000D01*
X195761904Y-130347619D01*
X195809523Y-130442857D01*
X195809523Y-130538095D01*
X195761904Y-130680952D01*
X195190476Y-131252380D01*
X195809523Y-131252380D01*
%TO.C,H4*%
X139238095Y-146252380D02*
X139238095Y-145252380D01*
X139238095Y-145728571D02*
X139809523Y-145728571D01*
X139809523Y-146252380D02*
X139809523Y-145252380D01*
X140714285Y-145585714D02*
X140714285Y-146252380D01*
X140476190Y-145204761D02*
X140238095Y-145919047D01*
X140857142Y-145919047D01*
%TO.C,C1*%
X161357142Y-133666666D02*
X161404761Y-133714285D01*
X161452380Y-133857142D01*
X161452380Y-133952380D01*
X161404761Y-134095238D01*
X161309523Y-134190476D01*
X161214285Y-134238095D01*
X161023809Y-134285714D01*
X160880952Y-134285714D01*
X160690476Y-134238095D01*
X160595238Y-134190476D01*
X160500000Y-134095238D01*
X160452380Y-133952380D01*
X160452380Y-133857142D01*
X160500000Y-133714285D01*
X160547619Y-133666666D01*
X161452380Y-132714285D02*
X161452380Y-133285714D01*
X161452380Y-133000000D02*
X160452380Y-133000000D01*
X160595238Y-133095238D01*
X160690476Y-133190476D01*
X160738095Y-133285714D01*
%TO.C,J1*%
X150166666Y-149202380D02*
X150166666Y-149916666D01*
X150119047Y-150059523D01*
X150023809Y-150154761D01*
X149880952Y-150202380D01*
X149785714Y-150202380D01*
X151166666Y-150202380D02*
X150595238Y-150202380D01*
X150880952Y-150202380D02*
X150880952Y-149202380D01*
X150785714Y-149345238D01*
X150690476Y-149440476D01*
X150595238Y-149488095D01*
%TO.C,R1*%
X163052380Y-132466666D02*
X162576190Y-132800000D01*
X163052380Y-133038095D02*
X162052380Y-133038095D01*
X162052380Y-132657142D01*
X162100000Y-132561904D01*
X162147619Y-132514285D01*
X162242857Y-132466666D01*
X162385714Y-132466666D01*
X162480952Y-132514285D01*
X162528571Y-132561904D01*
X162576190Y-132657142D01*
X162576190Y-133038095D01*
X163052380Y-131514285D02*
X163052380Y-132085714D01*
X163052380Y-131800000D02*
X162052380Y-131800000D01*
X162195238Y-131895238D01*
X162290476Y-131990476D01*
X162338095Y-132085714D01*
%TO.C,R2*%
X166958333Y-132522380D02*
X166625000Y-132046190D01*
X166386904Y-132522380D02*
X166386904Y-131522380D01*
X166767857Y-131522380D01*
X166863095Y-131570000D01*
X166910714Y-131617619D01*
X166958333Y-131712857D01*
X166958333Y-131855714D01*
X166910714Y-131950952D01*
X166863095Y-131998571D01*
X166767857Y-132046190D01*
X166386904Y-132046190D01*
X167339285Y-131617619D02*
X167386904Y-131570000D01*
X167482142Y-131522380D01*
X167720238Y-131522380D01*
X167815476Y-131570000D01*
X167863095Y-131617619D01*
X167910714Y-131712857D01*
X167910714Y-131808095D01*
X167863095Y-131950952D01*
X167291666Y-132522380D01*
X167910714Y-132522380D01*
%TO.C,R3*%
X163022380Y-148541666D02*
X162546190Y-148875000D01*
X163022380Y-149113095D02*
X162022380Y-149113095D01*
X162022380Y-148732142D01*
X162070000Y-148636904D01*
X162117619Y-148589285D01*
X162212857Y-148541666D01*
X162355714Y-148541666D01*
X162450952Y-148589285D01*
X162498571Y-148636904D01*
X162546190Y-148732142D01*
X162546190Y-149113095D01*
X162022380Y-148208333D02*
X162022380Y-147589285D01*
X162403333Y-147922619D01*
X162403333Y-147779761D01*
X162450952Y-147684523D01*
X162498571Y-147636904D01*
X162593809Y-147589285D01*
X162831904Y-147589285D01*
X162927142Y-147636904D01*
X162974761Y-147684523D01*
X163022380Y-147779761D01*
X163022380Y-148065476D01*
X162974761Y-148160714D01*
X162927142Y-148208333D01*
%TO.C,U1*%
X164852380Y-143261904D02*
X165661904Y-143261904D01*
X165757142Y-143214285D01*
X165804761Y-143166666D01*
X165852380Y-143071428D01*
X165852380Y-142880952D01*
X165804761Y-142785714D01*
X165757142Y-142738095D01*
X165661904Y-142690476D01*
X164852380Y-142690476D01*
X165852380Y-141690476D02*
X165852380Y-142261904D01*
X165852380Y-141976190D02*
X164852380Y-141976190D01*
X164995238Y-142071428D01*
X165090476Y-142166666D01*
X165138095Y-142261904D01*
%TD*%
M02*
